<?xml version="1.0" encoding="UTF-8" standalone="no"?>
<!-- Created with Inkscape (http://www.inkscape.org/) -->

<svg
   xmlns:dc="http://purl.org/dc/elements/1.1/"
   xmlns:cc="http://creativecommons.org/ns#"
   xmlns:rdf="http://www.w3.org/1999/02/22-rdf-syntax-ns#"
   xmlns:svg="http://www.w3.org/2000/svg"
   xmlns="http://www.w3.org/2000/svg"
   xmlns:sodipodi="http://sodipodi.sourceforge.net/DTD/sodipodi-0.dtd"
   xmlns:inkscape="http://www.inkscape.org/namespaces/inkscape"
   width="120mm"
   height="50mm"
   viewBox="0 0 425.19685 177.16535"
   id="svg2"
   version="1.1"
   inkscape:version="0.91 r13725"
   sodipodi:docname="metro1.svg">
  <defs
     id="defs4" />
  <sodipodi:namedview
     id="base"
     pagecolor="#ffffff"
     bordercolor="#666666"
     borderopacity="1.0"
     inkscape:pageopacity="0.0"
     inkscape:pageshadow="2"
     inkscape:zoom="1.4142136"
     inkscape:cx="113.69937"
     inkscape:cy="93.799925"
     inkscape:document-units="mm"
     inkscape:current-layer="layer1"
     showgrid="false"
     borderlayer="true"
     inkscape:showpageshadow="false"
     inkscape:window-width="1366"
     inkscape:window-height="715"
     inkscape:window-x="-8"
     inkscape:window-y="-8"
     inkscape:window-maximized="1"
     showguides="false" />
  <metadata
     id="metadata7">
    <rdf:RDF>
      <cc:Work
         rdf:about="">
        <dc:format>image/svg+xml</dc:format>
        <dc:type
           rdf:resource="http://purl.org/dc/dcmitype/StillImage" />
        <dc:title></dc:title>
      </cc:Work>
    </rdf:RDF>
  </metadata>
  <g
     inkscape:label="Layer 1"
     inkscape:groupmode="layer"
     id="layer1"
     transform="translate(0,-875.19685)">
    <text
       xml:space="preserve"
       style="font-style:normal;font-weight:normal;font-size:13.41703796px;line-height:125%;font-family:sans-serif;letter-spacing:0px;word-spacing:0px;fill:#000000;fill-opacity:1;stroke:none;stroke-width:1px;stroke-linecap:butt;stroke-linejoin:miter;stroke-opacity:1"
       x="98.057129"
       y="1038.486"
       id="text4136"
       sodipodi:linespacing="125%"><tspan
         sodipodi:role="line"
         id="tspan4138"
         x="98.057129"
         y="1038.486"
         style="font-style:normal;font-variant:normal;font-weight:normal;font-stretch:normal;font-size:12.5px;font-family:'PT Serif';-inkscape-font-specification:'PT Serif'">рис. M1</tspan></text>
    <g
       id="g4302"
       transform="matrix(0.9532988,0,0,0.9532988,6.3034613,44.464882)"
       style="stroke:#919191;stroke-opacity:1">
      <path
         sodipodi:nodetypes="cc"
         inkscape:connector-curvature="0"
         id="path4220"
         d="m 60.403803,877.16982 0,149.88908"
         style="fill:none;fill-rule:evenodd;stroke:#919191;stroke-width:1.85844517;stroke-linecap:round;stroke-linejoin:miter;stroke-miterlimit:4;stroke-dasharray:none;stroke-opacity:1" />
      <path
         style="fill:none;fill-rule:evenodd;stroke:#919191;stroke-width:1.85844517;stroke-linecap:round;stroke-linejoin:miter;stroke-miterlimit:4;stroke-dasharray:none;stroke-opacity:1"
         d="m 79.891992,877.16982 0,149.88908"
         id="path4222"
         inkscape:connector-curvature="0"
         sodipodi:nodetypes="cc" />
      <path
         sodipodi:nodetypes="cc"
         inkscape:connector-curvature="0"
         id="path4224"
         d="m 99.380181,877.16982 0,149.88908"
         style="fill:none;fill-rule:evenodd;stroke:#919191;stroke-width:1.85844517;stroke-linecap:round;stroke-linejoin:miter;stroke-miterlimit:4;stroke-dasharray:none;stroke-opacity:1" />
      <path
         style="fill:none;fill-rule:evenodd;stroke:#919191;stroke-width:1.85844517;stroke-linecap:round;stroke-linejoin:miter;stroke-miterlimit:4;stroke-dasharray:none;stroke-opacity:1"
         d="m 118.86837,877.16982 0,149.88908"
         id="path4226"
         inkscape:connector-curvature="0"
         sodipodi:nodetypes="cc" />
      <path
         sodipodi:nodetypes="cc"
         inkscape:connector-curvature="0"
         id="path4228"
         d="m 138.35656,877.16982 0,149.88908"
         style="fill:none;fill-rule:evenodd;stroke:#919191;stroke-width:1.85844517;stroke-linecap:round;stroke-linejoin:miter;stroke-miterlimit:4;stroke-dasharray:none;stroke-opacity:1" />
      <path
         style="fill:none;fill-rule:evenodd;stroke:#919191;stroke-width:1.85844517;stroke-linecap:round;stroke-linejoin:miter;stroke-miterlimit:4;stroke-dasharray:none;stroke-opacity:1"
         d="m 157.84475,877.16982 0,149.88908"
         id="path4230"
         inkscape:connector-curvature="0"
         sodipodi:nodetypes="cc" />
      <path
         sodipodi:nodetypes="cc"
         inkscape:connector-curvature="0"
         id="path4232"
         d="m 177.33294,877.16982 0,149.88908"
         style="fill:none;fill-rule:evenodd;stroke:#919191;stroke-width:1.85844517;stroke-linecap:round;stroke-linejoin:miter;stroke-miterlimit:4;stroke-dasharray:none;stroke-opacity:1" />
      <path
         style="fill:none;fill-rule:evenodd;stroke:#919191;stroke-width:1.85844517;stroke-linecap:round;stroke-linejoin:miter;stroke-miterlimit:4;stroke-dasharray:none;stroke-opacity:1"
         d="m 193.81288,893.64979 -149.88908,0"
         id="path4245"
         inkscape:connector-curvature="0"
         sodipodi:nodetypes="cc" />
      <path
         sodipodi:nodetypes="cc"
         inkscape:connector-curvature="0"
         id="path4247"
         d="m 193.81288,913.13798 -149.88908,0"
         style="fill:none;fill-rule:evenodd;stroke:#919191;stroke-width:1.85844517;stroke-linecap:round;stroke-linejoin:miter;stroke-miterlimit:4;stroke-dasharray:none;stroke-opacity:1" />
      <path
         style="fill:none;fill-rule:evenodd;stroke:#919191;stroke-width:1.85844517;stroke-linecap:round;stroke-linejoin:miter;stroke-miterlimit:4;stroke-dasharray:none;stroke-opacity:1"
         d="m 193.81288,932.62617 -149.88908,0"
         id="path4249"
         inkscape:connector-curvature="0"
         sodipodi:nodetypes="cc" />
      <path
         sodipodi:nodetypes="cc"
         inkscape:connector-curvature="0"
         id="path4251"
         d="m 193.81288,952.11436 -149.88908,0"
         style="fill:none;fill-rule:evenodd;stroke:#919191;stroke-width:1.85844517;stroke-linecap:round;stroke-linejoin:miter;stroke-miterlimit:4;stroke-dasharray:none;stroke-opacity:1" />
      <path
         style="fill:none;fill-rule:evenodd;stroke:#919191;stroke-width:1.85844517;stroke-linecap:round;stroke-linejoin:miter;stroke-miterlimit:4;stroke-dasharray:none;stroke-opacity:1"
         d="m 193.81288,971.60255 -149.88908,0"
         id="path4253"
         inkscape:connector-curvature="0"
         sodipodi:nodetypes="cc" />
      <path
         sodipodi:nodetypes="cc"
         inkscape:connector-curvature="0"
         id="path4255"
         d="m 193.81288,991.09074 -149.88908,0"
         style="fill:none;fill-rule:evenodd;stroke:#919191;stroke-width:1.85844517;stroke-linecap:round;stroke-linejoin:miter;stroke-miterlimit:4;stroke-dasharray:none;stroke-opacity:1" />
      <path
         style="fill:none;fill-rule:evenodd;stroke:#919191;stroke-width:1.85844517;stroke-linecap:round;stroke-linejoin:miter;stroke-miterlimit:4;stroke-dasharray:none;stroke-opacity:1"
         d="m 193.81288,1010.5789 -149.88908,0"
         id="path4257"
         inkscape:connector-curvature="0"
         sodipodi:nodetypes="cc" />
    </g>
    <path
       inkscape:connector-curvature="0"
       style="opacity:1;fill:#000000;fill-opacity:1;stroke:none;stroke-width:1.77165353;stroke-linecap:round;stroke-miterlimit:4;stroke-dasharray:none;stroke-opacity:1"
       d="m 123.91128,952.11438 a 4.2907376,4.2907376 0 0 1 -4.29074,4.29074 4.2907376,4.2907376 0 0 1 -4.29074,-4.29074 4.2907376,4.2907376 0 0 1 4.29074,-4.29074 4.2907376,4.2907376 0 0 1 4.29074,4.29074 z"
       id="path4318" />
    <path
       inkscape:connector-curvature="0"
       style="opacity:1;fill:#000000;fill-opacity:1;stroke:none;stroke-width:1.77165353;stroke-linecap:round;stroke-miterlimit:4;stroke-dasharray:none;stroke-opacity:1"
       d="m 142.48935,914.95825 a 4.2907376,4.2907376 0 0 1 -4.29074,4.29074 4.2907376,4.2907376 0 0 1 -4.29074,-4.29074 4.2907376,4.2907376 0 0 1 4.29074,-4.29074 4.2907376,4.2907376 0 0 1 4.29074,4.29074 z"
       id="circle4320" />
    <path
       style="fill:none;fill-rule:evenodd;stroke:#000000;stroke-width:3.18897629;stroke-linecap:round;stroke-linejoin:round;stroke-miterlimit:4;stroke-dasharray:none;stroke-opacity:1"
       d="m 119.67869,951.99723 -0.0442,-18.47317 18.60574,0.0221 -0.0663,-16.92637"
       id="path4324"
       inkscape:connector-curvature="0" />
    <path
       inkscape:connector-curvature="0"
       style="opacity:1;fill:#ffffff;fill-opacity:1;stroke:#000000;stroke-width:1.70078743;stroke-linecap:round;stroke-miterlimit:4;stroke-dasharray:none;stroke-opacity:1"
       d="m 123.06106,914.95825 a 3.4405513,3.4405513 0 0 1 -3.44055,3.44055 3.4405513,3.4405513 0 0 1 -3.44055,-3.44055 3.4405513,3.4405513 0 0 1 3.44055,-3.44055 3.4405513,3.4405513 0 0 1 3.44055,3.44055 z"
       id="circle4326" />
    <path
       inkscape:connector-curvature="0"
       style="opacity:1;fill:#ffffff;fill-opacity:1;stroke:#000000;stroke-width:1.70078743;stroke-linecap:round;stroke-miterlimit:4;stroke-dasharray:none;stroke-opacity:1"
       d="m 104.48302,914.95825 a 3.4405513,3.4405513 0 0 1 -3.44055,3.44055 3.4405513,3.4405513 0 0 1 -3.440556,-3.44055 3.4405513,3.4405513 0 0 1 3.440556,-3.44055 3.4405513,3.4405513 0 0 1 3.44055,3.44055 z"
       id="circle4328" />
    <path
       inkscape:connector-curvature="0"
       style="opacity:1;fill:#ffffff;fill-opacity:1;stroke:#000000;stroke-width:1.70078743;stroke-linecap:round;stroke-miterlimit:4;stroke-dasharray:none;stroke-opacity:1"
       d="m 123.06106,896.38013 a 3.4405513,3.4405513 0 0 1 -3.44055,3.44055 3.4405513,3.4405513 0 0 1 -3.44055,-3.44055 3.4405513,3.4405513 0 0 1 3.44055,-3.44055 3.4405513,3.4405513 0 0 1 3.44055,3.44055 z"
       id="circle4351" />
    <path
       inkscape:connector-curvature="0"
       style="opacity:1;fill:#ffffff;fill-opacity:1;stroke:#000000;stroke-width:1.70078743;stroke-linecap:round;stroke-miterlimit:4;stroke-dasharray:none;stroke-opacity:1"
       d="m 123.06106,933.53632 a 3.4405513,3.4405513 0 0 1 -3.44055,3.44055 3.4405513,3.4405513 0 0 1 -3.44055,-3.44055 3.4405513,3.4405513 0 0 1 3.44055,-3.44056 3.4405513,3.4405513 0 0 1 3.44055,3.44056 z"
       id="circle4367" />
    <path
       inkscape:connector-curvature="0"
       style="opacity:1;fill:#ffffff;fill-opacity:1;stroke:#000000;stroke-width:1.70078743;stroke-linecap:round;stroke-miterlimit:4;stroke-dasharray:none;stroke-opacity:1"
       d="m 104.48302,933.53632 a 3.4405513,3.4405513 0 0 1 -3.44055,3.44055 3.4405513,3.4405513 0 0 1 -3.440556,-3.44055 3.4405513,3.4405513 0 0 1 3.440556,-3.44056 3.4405513,3.4405513 0 0 1 3.44055,3.44056 z"
       id="circle4369" />
    <path
       inkscape:connector-curvature="0"
       style="opacity:1;fill:#ffffff;fill-opacity:1;stroke:#000000;stroke-width:1.70078743;stroke-linecap:round;stroke-miterlimit:4;stroke-dasharray:none;stroke-opacity:1"
       d="m 141.63916,933.53632 a 3.4405513,3.4405513 0 0 1 -3.44055,3.44055 3.4405513,3.4405513 0 0 1 -3.44055,-3.44055 3.4405513,3.4405513 0 0 1 3.44055,-3.44056 3.4405513,3.4405513 0 0 1 3.44055,3.44056 z"
       id="circle4371" />
    <path
       inkscape:connector-curvature="0"
       style="opacity:1;fill:#ffffff;fill-opacity:1;stroke:#000000;stroke-width:1.70078743;stroke-linecap:round;stroke-miterlimit:4;stroke-dasharray:none;stroke-opacity:1"
       d="m 160.21723,933.53632 a 3.4405513,3.4405513 0 0 1 -3.44055,3.44055 3.4405513,3.4405513 0 0 1 -3.44056,-3.44055 3.4405513,3.4405513 0 0 1 3.44056,-3.44056 3.4405513,3.4405513 0 0 1 3.44055,3.44056 z"
       id="circle4373" />
    <path
       inkscape:connector-curvature="0"
       style="opacity:1;fill:#ffffff;fill-opacity:1;stroke:#000000;stroke-width:1.70078743;stroke-linecap:round;stroke-miterlimit:4;stroke-dasharray:none;stroke-opacity:1"
       d="m 85.904953,933.53632 a 3.4405513,3.4405513 0 0 1 -3.440552,3.44055 3.4405513,3.4405513 0 0 1 -3.440551,-3.44055 3.4405513,3.4405513 0 0 1 3.440551,-3.44056 3.4405513,3.4405513 0 0 1 3.440552,3.44056 z"
       id="circle4377" />
    <path
       inkscape:connector-curvature="0"
       style="opacity:1;fill:#ffffff;fill-opacity:1;stroke:#000000;stroke-width:1.70078743;stroke-linecap:round;stroke-miterlimit:4;stroke-dasharray:none;stroke-opacity:1"
       d="m 104.48302,952.11438 a 3.4405513,3.4405513 0 0 1 -3.44055,3.44055 3.4405513,3.4405513 0 0 1 -3.440556,-3.44055 3.4405513,3.4405513 0 0 1 3.440556,-3.44055 3.4405513,3.4405513 0 0 1 3.44055,3.44055 z"
       id="circle4385" />
    <path
       inkscape:connector-curvature="0"
       style="opacity:1;fill:#ffffff;fill-opacity:1;stroke:#000000;stroke-width:1.70078743;stroke-linecap:round;stroke-miterlimit:4;stroke-dasharray:none;stroke-opacity:1"
       d="m 141.63916,952.11438 a 3.4405513,3.4405513 0 0 1 -3.44055,3.44055 3.4405513,3.4405513 0 0 1 -3.44055,-3.44055 3.4405513,3.4405513 0 0 1 3.44055,-3.44055 3.4405513,3.4405513 0 0 1 3.44055,3.44055 z"
       id="circle4387" />
    <path
       inkscape:connector-curvature="0"
       style="opacity:1;fill:#ffffff;fill-opacity:1;stroke:#000000;stroke-width:1.70078743;stroke-linecap:round;stroke-miterlimit:4;stroke-dasharray:none;stroke-opacity:1"
       d="m 160.21723,952.11438 a 3.4405513,3.4405513 0 0 1 -3.44055,3.44055 3.4405513,3.4405513 0 0 1 -3.44056,-3.44055 3.4405513,3.4405513 0 0 1 3.44056,-3.44055 3.4405513,3.4405513 0 0 1 3.44055,3.44055 z"
       id="circle4389" />
    <path
       inkscape:connector-curvature="0"
       style="opacity:1;fill:#ffffff;fill-opacity:1;stroke:#000000;stroke-width:1.70078743;stroke-linecap:round;stroke-miterlimit:4;stroke-dasharray:none;stroke-opacity:1"
       d="m 178.79529,952.11438 a 3.4405513,3.4405513 0 0 1 -3.44055,3.44055 3.4405513,3.4405513 0 0 1 -3.44055,-3.44055 3.4405513,3.4405513 0 0 1 3.44055,-3.44055 3.4405513,3.4405513 0 0 1 3.44055,3.44055 z"
       id="circle4391" />
    <path
       inkscape:connector-curvature="0"
       style="opacity:1;fill:#ffffff;fill-opacity:1;stroke:#000000;stroke-width:1.70078743;stroke-linecap:round;stroke-miterlimit:4;stroke-dasharray:none;stroke-opacity:1"
       d="m 85.904953,952.11438 a 3.4405513,3.4405513 0 0 1 -3.440552,3.44055 3.4405513,3.4405513 0 0 1 -3.440551,-3.44055 3.4405513,3.4405513 0 0 1 3.440551,-3.44055 3.4405513,3.4405513 0 0 1 3.440552,3.44055 z"
       id="circle4393" />
    <path
       inkscape:connector-curvature="0"
       style="opacity:1;fill:#ffffff;fill-opacity:1;stroke:#000000;stroke-width:1.70078743;stroke-linecap:round;stroke-miterlimit:4;stroke-dasharray:none;stroke-opacity:1"
       d="m 67.326885,952.11438 a 3.4405513,3.4405513 0 0 1 -3.440551,3.44055 3.4405513,3.4405513 0 0 1 -3.440552,-3.44055 3.4405513,3.4405513 0 0 1 3.440552,-3.44055 3.4405513,3.4405513 0 0 1 3.440551,3.44055 z"
       id="circle4395" />
    <path
       inkscape:connector-curvature="0"
       style="opacity:1;fill:#ffffff;fill-opacity:1;stroke:#000000;stroke-width:1.70078743;stroke-linecap:round;stroke-miterlimit:4;stroke-dasharray:none;stroke-opacity:1"
       d="m 123.06106,970.69244 a 3.4405513,3.4405513 0 0 1 -3.44055,3.44056 3.4405513,3.4405513 0 0 1 -3.44055,-3.44056 3.4405513,3.4405513 0 0 1 3.44055,-3.44055 3.4405513,3.4405513 0 0 1 3.44055,3.44055 z"
       id="circle4399" />
    <path
       inkscape:connector-curvature="0"
       style="opacity:1;fill:#ffffff;fill-opacity:1;stroke:#000000;stroke-width:1.70078743;stroke-linecap:round;stroke-miterlimit:4;stroke-dasharray:none;stroke-opacity:1"
       d="m 104.48302,970.69244 a 3.4405513,3.4405513 0 0 1 -3.44055,3.44056 3.4405513,3.4405513 0 0 1 -3.440556,-3.44056 3.4405513,3.4405513 0 0 1 3.440556,-3.44055 3.4405513,3.4405513 0 0 1 3.44055,3.44055 z"
       id="circle4401" />
    <path
       inkscape:connector-curvature="0"
       style="opacity:1;fill:#ffffff;fill-opacity:1;stroke:#000000;stroke-width:1.70078743;stroke-linecap:round;stroke-miterlimit:4;stroke-dasharray:none;stroke-opacity:1"
       d="m 141.63916,970.69244 a 3.4405513,3.4405513 0 0 1 -3.44055,3.44056 3.4405513,3.4405513 0 0 1 -3.44055,-3.44056 3.4405513,3.4405513 0 0 1 3.44055,-3.44055 3.4405513,3.4405513 0 0 1 3.44055,3.44055 z"
       id="circle4403" />
    <path
       inkscape:connector-curvature="0"
       style="opacity:1;fill:#ffffff;fill-opacity:1;stroke:#000000;stroke-width:1.70078743;stroke-linecap:round;stroke-miterlimit:4;stroke-dasharray:none;stroke-opacity:1"
       d="m 160.21723,970.69244 a 3.4405513,3.4405513 0 0 1 -3.44055,3.44056 3.4405513,3.4405513 0 0 1 -3.44056,-3.44056 3.4405513,3.4405513 0 0 1 3.44056,-3.44055 3.4405513,3.4405513 0 0 1 3.44055,3.44055 z"
       id="circle4405" />
    <path
       inkscape:connector-curvature="0"
       style="opacity:1;fill:#ffffff;fill-opacity:1;stroke:#000000;stroke-width:1.70078743;stroke-linecap:round;stroke-miterlimit:4;stroke-dasharray:none;stroke-opacity:1"
       d="m 85.904953,970.69244 a 3.4405513,3.4405513 0 0 1 -3.440552,3.44056 3.4405513,3.4405513 0 0 1 -3.440551,-3.44056 3.4405513,3.4405513 0 0 1 3.440551,-3.44055 3.4405513,3.4405513 0 0 1 3.440552,3.44055 z"
       id="circle4409" />
    <path
       inkscape:connector-curvature="0"
       style="opacity:1;fill:#ffffff;fill-opacity:1;stroke:#000000;stroke-width:1.70078743;stroke-linecap:round;stroke-miterlimit:4;stroke-dasharray:none;stroke-opacity:1"
       d="m 123.06106,989.27051 a 3.4405513,3.4405513 0 0 1 -3.44055,3.44055 3.4405513,3.4405513 0 0 1 -3.44055,-3.44055 3.4405513,3.4405513 0 0 1 3.44055,-3.44055 3.4405513,3.4405513 0 0 1 3.44055,3.44055 z"
       id="circle4415" />
    <path
       inkscape:connector-curvature="0"
       style="opacity:1;fill:#ffffff;fill-opacity:1;stroke:#000000;stroke-width:1.70078743;stroke-linecap:round;stroke-miterlimit:4;stroke-dasharray:none;stroke-opacity:1"
       d="m 104.48302,989.27051 a 3.4405513,3.4405513 0 0 1 -3.44055,3.44055 3.4405513,3.4405513 0 0 1 -3.440556,-3.44055 3.4405513,3.4405513 0 0 1 3.440556,-3.44055 3.4405513,3.4405513 0 0 1 3.44055,3.44055 z"
       id="circle4417" />
    <path
       inkscape:connector-curvature="0"
       style="opacity:1;fill:#ffffff;fill-opacity:1;stroke:#000000;stroke-width:1.70078743;stroke-linecap:round;stroke-miterlimit:4;stroke-dasharray:none;stroke-opacity:1"
       d="m 141.63916,989.27051 a 3.4405513,3.4405513 0 0 1 -3.44055,3.44055 3.4405513,3.4405513 0 0 1 -3.44055,-3.44055 3.4405513,3.4405513 0 0 1 3.44055,-3.44055 3.4405513,3.4405513 0 0 1 3.44055,3.44055 z"
       id="circle4419" />
    <path
       inkscape:connector-curvature="0"
       style="opacity:1;fill:#ffffff;fill-opacity:1;stroke:#000000;stroke-width:1.70078743;stroke-linecap:round;stroke-miterlimit:4;stroke-dasharray:none;stroke-opacity:1"
       d="m 123.06106,1007.8485 a 3.4405513,3.4405513 0 0 1 -3.44055,3.4406 3.4405513,3.4405513 0 0 1 -3.44055,-3.4406 3.4405513,3.4405513 0 0 1 3.44055,-3.4405 3.4405513,3.4405513 0 0 1 3.44055,3.4405 z"
       id="circle4431" />
    <text
       sodipodi:linespacing="125%"
       id="text4519"
       y="1038.486"
       x="283.78796"
       style="font-style:normal;font-weight:normal;font-size:13.41703796px;line-height:125%;font-family:sans-serif;letter-spacing:0px;word-spacing:0px;fill:#000000;fill-opacity:1;stroke:none;stroke-width:1px;stroke-linecap:butt;stroke-linejoin:miter;stroke-opacity:1"
       xml:space="preserve"><tspan
         style="font-style:normal;font-variant:normal;font-weight:normal;font-stretch:normal;font-size:12.5px;font-family:'PT Serif';-inkscape-font-specification:'PT Serif'"
         y="1038.486"
         x="283.78796"
         id="tspan4521"
         sodipodi:role="line">рис. M2</tspan></text>
    <g
       transform="matrix(0.9532988,0,0,0.9532988,192.2593,44.464882)"
       id="g4523"
       style="stroke:#919191;stroke-opacity:1">
      <path
         style="fill:none;fill-rule:evenodd;stroke:#919191;stroke-width:1.85844517;stroke-linecap:round;stroke-linejoin:miter;stroke-miterlimit:4;stroke-dasharray:none;stroke-opacity:1"
         d="m 60.403803,877.16982 0,149.88908"
         id="path4525"
         inkscape:connector-curvature="0"
         sodipodi:nodetypes="cc" />
      <path
         sodipodi:nodetypes="cc"
         inkscape:connector-curvature="0"
         id="path4527"
         d="m 79.891992,877.16982 0,149.88908"
         style="fill:none;fill-rule:evenodd;stroke:#919191;stroke-width:1.85844517;stroke-linecap:round;stroke-linejoin:miter;stroke-miterlimit:4;stroke-dasharray:none;stroke-opacity:1" />
      <path
         style="fill:none;fill-rule:evenodd;stroke:#919191;stroke-width:1.85844517;stroke-linecap:round;stroke-linejoin:miter;stroke-miterlimit:4;stroke-dasharray:none;stroke-opacity:1"
         d="m 99.380181,877.16982 0,149.88908"
         id="path4529"
         inkscape:connector-curvature="0"
         sodipodi:nodetypes="cc" />
      <path
         sodipodi:nodetypes="cc"
         inkscape:connector-curvature="0"
         id="path4531"
         d="m 118.86837,877.16982 0,149.88908"
         style="fill:none;fill-rule:evenodd;stroke:#919191;stroke-width:1.85844517;stroke-linecap:round;stroke-linejoin:miter;stroke-miterlimit:4;stroke-dasharray:none;stroke-opacity:1" />
      <path
         style="fill:none;fill-rule:evenodd;stroke:#919191;stroke-width:1.85844517;stroke-linecap:round;stroke-linejoin:miter;stroke-miterlimit:4;stroke-dasharray:none;stroke-opacity:1"
         d="m 138.35656,877.16982 0,149.88908"
         id="path4533"
         inkscape:connector-curvature="0"
         sodipodi:nodetypes="cc" />
      <path
         sodipodi:nodetypes="cc"
         inkscape:connector-curvature="0"
         id="path4535"
         d="m 157.84475,877.16982 0,149.88908"
         style="fill:none;fill-rule:evenodd;stroke:#919191;stroke-width:1.85844517;stroke-linecap:round;stroke-linejoin:miter;stroke-miterlimit:4;stroke-dasharray:none;stroke-opacity:1" />
      <path
         style="fill:none;fill-rule:evenodd;stroke:#919191;stroke-width:1.85844517;stroke-linecap:round;stroke-linejoin:miter;stroke-miterlimit:4;stroke-dasharray:none;stroke-opacity:1"
         d="m 177.33294,877.16982 0,149.88908"
         id="path4537"
         inkscape:connector-curvature="0"
         sodipodi:nodetypes="cc" />
      <path
         sodipodi:nodetypes="cc"
         inkscape:connector-curvature="0"
         id="path4539"
         d="m 193.81288,893.64979 -149.88908,0"
         style="fill:none;fill-rule:evenodd;stroke:#919191;stroke-width:1.85844517;stroke-linecap:round;stroke-linejoin:miter;stroke-miterlimit:4;stroke-dasharray:none;stroke-opacity:1" />
      <path
         style="fill:none;fill-rule:evenodd;stroke:#919191;stroke-width:1.85844517;stroke-linecap:round;stroke-linejoin:miter;stroke-miterlimit:4;stroke-dasharray:none;stroke-opacity:1"
         d="m 193.81288,913.13798 -149.88908,0"
         id="path4541"
         inkscape:connector-curvature="0"
         sodipodi:nodetypes="cc" />
      <path
         sodipodi:nodetypes="cc"
         inkscape:connector-curvature="0"
         id="path4543"
         d="m 193.81288,932.62617 -149.88908,0"
         style="fill:none;fill-rule:evenodd;stroke:#919191;stroke-width:1.85844517;stroke-linecap:round;stroke-linejoin:miter;stroke-miterlimit:4;stroke-dasharray:none;stroke-opacity:1" />
      <path
         style="fill:none;fill-rule:evenodd;stroke:#919191;stroke-width:1.85844517;stroke-linecap:round;stroke-linejoin:miter;stroke-miterlimit:4;stroke-dasharray:none;stroke-opacity:1"
         d="m 193.81288,952.11436 -149.88908,0"
         id="path4545"
         inkscape:connector-curvature="0"
         sodipodi:nodetypes="cc" />
      <path
         sodipodi:nodetypes="cc"
         inkscape:connector-curvature="0"
         id="path4547"
         d="m 193.81288,971.60255 -149.88908,0"
         style="fill:none;fill-rule:evenodd;stroke:#919191;stroke-width:1.85844517;stroke-linecap:round;stroke-linejoin:miter;stroke-miterlimit:4;stroke-dasharray:none;stroke-opacity:1" />
      <path
         style="fill:none;fill-rule:evenodd;stroke:#919191;stroke-width:1.85844517;stroke-linecap:round;stroke-linejoin:miter;stroke-miterlimit:4;stroke-dasharray:none;stroke-opacity:1"
         d="m 193.81288,991.09074 -149.88908,0"
         id="path4549"
         inkscape:connector-curvature="0"
         sodipodi:nodetypes="cc" />
      <path
         sodipodi:nodetypes="cc"
         inkscape:connector-curvature="0"
         id="path4551"
         d="m 193.81288,1010.5789 -149.88908,0"
         style="fill:none;fill-rule:evenodd;stroke:#919191;stroke-width:1.85844517;stroke-linecap:round;stroke-linejoin:miter;stroke-miterlimit:4;stroke-dasharray:none;stroke-opacity:1" />
    </g>
    <path
       id="path4553"
       d="m 272.71098,970.69243 a 4.2907376,4.2907376 0 0 1 -4.29074,4.29074 4.2907376,4.2907376 0 0 1 -4.29074,-4.29074 4.2907376,4.2907376 0 0 1 4.29074,-4.29074 4.2907376,4.2907376 0 0 1 4.29074,4.29074 z"
       style="opacity:1;fill:#000000;fill-opacity:1;stroke:none;stroke-width:1.77165353;stroke-linecap:round;stroke-miterlimit:4;stroke-dasharray:none;stroke-opacity:1"
       inkscape:connector-curvature="0" />
    <path
       id="path4555"
       d="m 347.02325,989.2705 a 4.2907376,4.2907376 0 0 1 -4.29074,4.29074 4.2907376,4.2907376 0 0 1 -4.29074,-4.29074 4.2907376,4.2907376 0 0 1 4.29074,-4.29074 4.2907376,4.2907376 0 0 1 4.29074,4.29074 z"
       style="opacity:1;fill:#000000;fill-opacity:1;stroke:none;stroke-width:1.77165353;stroke-linecap:round;stroke-miterlimit:4;stroke-dasharray:none;stroke-opacity:1"
       inkscape:connector-curvature="0" />
    <path
       style="fill:none;fill-rule:evenodd;stroke:#000000;stroke-width:3.18897629;stroke-linecap:round;stroke-linejoin:round;stroke-miterlimit:4;stroke-dasharray:none;stroke-opacity:1"
       d="m 268.30369,970.55878 18.69414,0 0,-36.90214 -18.63357,0 0,-18.79445 55.80087,0 0,18.70606 -18.45712,0 0,18.29394 55.49184,0 0,19.00595 -18.73833,0 0,18.38477"
       id="path4605"
       inkscape:connector-curvature="0" />
  </g>
</svg>
