<?xml version="1.0" encoding="UTF-8" standalone="no"?>
<!-- Created with Inkscape (http://www.inkscape.org/) -->

<svg
   xmlns:dc="http://purl.org/dc/elements/1.1/"
   xmlns:cc="http://creativecommons.org/ns#"
   xmlns:rdf="http://www.w3.org/1999/02/22-rdf-syntax-ns#"
   xmlns:svg="http://www.w3.org/2000/svg"
   xmlns="http://www.w3.org/2000/svg"
   xmlns:sodipodi="http://sodipodi.sourceforge.net/DTD/sodipodi-0.dtd"
   xmlns:inkscape="http://www.inkscape.org/namespaces/inkscape"
   width="3000"
   height="1000"
   viewBox="0 0 3000 1000"
   id="svg2"
   version="1.1"
   inkscape:version="0.91 r13725"
   sodipodi:docname="3.svg"
   inkscape:export-filename="C:\Users\Borist\Desktop\NONSTAHP 20!8\graph\3.png"
   inkscape:export-xdpi="90"
   inkscape:export-ydpi="90">
  <defs
     id="defs4" />
  <sodipodi:namedview
     id="base"
     pagecolor="#ffffff"
     bordercolor="#666666"
     borderopacity="1.0"
     inkscape:pageopacity="0.0"
     inkscape:pageshadow="2"
     inkscape:zoom="0.35000001"
     inkscape:cx="1235.5441"
     inkscape:cy="538.38813"
     inkscape:document-units="px"
     inkscape:current-layer="layer1"
     showgrid="false"
     units="px"
     borderlayer="true"
     inkscape:showpageshadow="false"
     inkscape:window-width="1366"
     inkscape:window-height="715"
     inkscape:window-x="-8"
     inkscape:window-y="-8"
     inkscape:window-maximized="1" />
  <metadata
     id="metadata7">
    <rdf:RDF>
      <cc:Work
         rdf:about="">
        <dc:format>image/svg+xml</dc:format>
        <dc:type
           rdf:resource="http://purl.org/dc/dcmitype/StillImage" />
        <dc:title />
      </cc:Work>
    </rdf:RDF>
  </metadata>
  <g
     inkscape:label="Layer 1"
     inkscape:groupmode="layer"
     id="layer1"
     transform="translate(0,-52.362161)">
    <g
       id="g4232"
       transform="translate(1000,0)">
      <path
         sodipodi:nodetypes="cc"
         inkscape:connector-curvature="0"
         id="path4153"
         d="m 500,132.36216 0,840"
         style="fill:none;fill-opacity:1;fill-rule:evenodd;stroke:#000000;stroke-width:8.5;stroke-linecap:round;stroke-linejoin:miter;stroke-miterlimit:4;stroke-dasharray:none;stroke-opacity:1" />
      <path
         inkscape:connector-curvature="0"
         id="path4155"
         d="m 499.98065,132.35889 -18.54204,53.86558"
         style="fill:none;fill-rule:evenodd;stroke:#000000;stroke-width:8.5;stroke-linecap:round;stroke-linejoin:miter;stroke-miterlimit:4;stroke-dasharray:none;stroke-opacity:1" />
      <path
         style="fill:none;fill-rule:evenodd;stroke:#000000;stroke-width:8.5;stroke-linecap:round;stroke-linejoin:miter;stroke-miterlimit:4;stroke-dasharray:none;stroke-opacity:1"
         d="m 500.01935,132.35889 18.54204,53.86558"
         id="path4157"
         inkscape:connector-curvature="0" />
      <path
         sodipodi:nodetypes="cc"
         inkscape:connector-curvature="0"
         id="path4172"
         d="m 488,392.36216 24,0"
         style="fill:none;fill-rule:evenodd;stroke:#000000;stroke-width:8.5;stroke-linecap:round;stroke-linejoin:miter;stroke-miterlimit:4;stroke-dasharray:none;stroke-opacity:1" />
      <path
         style="fill:none;fill-opacity:1;fill-rule:evenodd;stroke:#000000;stroke-width:8.5;stroke-linecap:round;stroke-linejoin:miter;stroke-miterlimit:4;stroke-dasharray:none;stroke-opacity:1"
         d="m 920,552.36216 -840,0"
         id="path4202"
         inkscape:connector-curvature="0"
         sodipodi:nodetypes="cc" />
      <path
         style="fill:none;fill-rule:evenodd;stroke:#000000;stroke-width:8.5;stroke-linecap:round;stroke-linejoin:miter;stroke-miterlimit:4;stroke-dasharray:none;stroke-opacity:1"
         d="M 920.00327,552.3426 866.13769,533.80056"
         id="path4204"
         inkscape:connector-curvature="0" />
      <path
         inkscape:connector-curvature="0"
         id="path4206"
         d="m 920.00327,552.38172 -53.86558,18.54205"
         style="fill:none;fill-rule:evenodd;stroke:#000000;stroke-width:8.5;stroke-linecap:round;stroke-linejoin:miter;stroke-miterlimit:4;stroke-dasharray:none;stroke-opacity:1" />
      <path
         style="fill:none;fill-rule:evenodd;stroke:#000000;stroke-width:8.5;stroke-linecap:round;stroke-linejoin:miter;stroke-miterlimit:4;stroke-dasharray:none;stroke-opacity:1"
         d="m 660,540.36217 0,24"
         id="path4208"
         inkscape:connector-curvature="0"
         sodipodi:nodetypes="cc" />
      <path
         style="fill:none;fill-rule:evenodd;stroke:#000000;stroke-width:8.5;stroke-linecap:round;stroke-linejoin:miter;stroke-miterlimit:4;stroke-dasharray:none;stroke-opacity:1"
         d="m 488,712.36216 24,0"
         id="path4187"
         inkscape:connector-curvature="0"
         sodipodi:nodetypes="cc" />
      <path
         sodipodi:nodetypes="cc"
         inkscape:connector-curvature="0"
         id="path4189"
         d="m 340,540.36216 0,24"
         style="fill:none;fill-rule:evenodd;stroke:#000000;stroke-width:8.5;stroke-linecap:round;stroke-linejoin:miter;stroke-miterlimit:4;stroke-dasharray:none;stroke-opacity:1" />
      <path
         d="m 661.64121,594.26457 5.00412,0 0,-17.29997 0.35744,-2.10888 -1.42975,1.67996 -3.93181,2.82375 -1.35826,-1.82293 7.86362,-6.07644 1.28677,0 0,22.80451 4.8969,0 0,2.64504 -12.68903,0 0,-2.64504 z"
         style="font-style:normal;font-variant:normal;font-weight:normal;font-stretch:normal;font-size:medium;line-height:125%;font-family:'PT Sans';-inkscape-font-specification:'PT Sans';letter-spacing:0px;word-spacing:0px;fill:#000000;fill-opacity:1;stroke:none;stroke-width:1px;stroke-linecap:butt;stroke-linejoin:miter;stroke-opacity:1"
         id="path4214"
         inkscape:connector-curvature="0" />
      <path
         d="m 514.25522,377.34083 5.00413,0 0,-17.29997 0.35743,-2.10888 -1.42975,1.67996 -3.93181,2.82375 -1.35826,-1.82293 7.86362,-6.07643 1.28678,0 0,22.8045 4.89689,0 0,2.64504 -12.68903,0 0,-2.64504 z"
         style="font-style:normal;font-variant:normal;font-weight:normal;font-stretch:normal;font-size:medium;line-height:125%;font-family:'PT Sans';-inkscape-font-specification:'PT Sans';letter-spacing:0px;word-spacing:0px;fill:#000000;fill-opacity:1;stroke:none;stroke-width:1px;stroke-linecap:butt;stroke-linejoin:miter;stroke-opacity:1"
         id="path4217"
         inkscape:connector-curvature="0" />
      <path
         d="m 301.04489,580.99158 15.15535,0 0,2.57355 -15.15535,0 0,-2.57355 z"
         style="font-style:normal;font-variant:normal;font-weight:normal;font-stretch:normal;font-size:medium;line-height:125%;font-family:'PT Sans';-inkscape-font-specification:'PT Sans';letter-spacing:0px;word-spacing:0px;fill:#000000;fill-opacity:1;stroke:none;stroke-width:1px;stroke-linecap:butt;stroke-linejoin:miter;stroke-opacity:1"
         id="path4220"
         inkscape:connector-curvature="0" />
      <path
         d="m 321.55677,591.7147 5.00413,0 0,-17.29997 0.35743,-2.10888 -1.42975,1.67996 -3.93181,2.82375 -1.35826,-1.82293 7.86362,-6.07643 1.28678,0 0,22.8045 4.89689,0 0,2.64504 -12.68903,0 0,-2.64504 z"
         style="font-style:normal;font-variant:normal;font-weight:normal;font-stretch:normal;font-size:medium;line-height:125%;font-family:'PT Sans';-inkscape-font-specification:'PT Sans';letter-spacing:0px;word-spacing:0px;fill:#000000;fill-opacity:1;stroke:none;stroke-width:1px;stroke-linecap:butt;stroke-linejoin:miter;stroke-opacity:1"
         id="path4222"
         inkscape:connector-curvature="0" />
      <path
         d="m 455.61905,733.39966 15.15535,0 0,2.57355 -15.15535,0 0,-2.57355 z"
         style="font-style:normal;font-variant:normal;font-weight:normal;font-stretch:normal;font-size:medium;line-height:125%;font-family:'PT Sans';-inkscape-font-specification:'PT Sans';letter-spacing:0px;word-spacing:0px;fill:#000000;fill-opacity:1;stroke:none;stroke-width:1px;stroke-linecap:butt;stroke-linejoin:miter;stroke-opacity:1"
         id="path4209"
         inkscape:connector-curvature="0" />
      <path
         d="m 476.13093,744.12279 5.00412,0 0,-17.29997 0.35744,-2.10889 -1.42975,1.67996 -3.93181,2.82376 -1.35826,-1.82293 7.86362,-6.07644 1.28678,0 0,22.80451 4.89689,0 0,2.64503 -12.68903,0 0,-2.64503 z"
         style="font-style:normal;font-variant:normal;font-weight:normal;font-stretch:normal;font-size:medium;line-height:125%;font-family:'PT Sans';-inkscape-font-specification:'PT Sans';letter-spacing:0px;word-spacing:0px;fill:#000000;fill-opacity:1;stroke:none;stroke-width:1px;stroke-linecap:butt;stroke-linejoin:miter;stroke-opacity:1"
         id="path4211"
         inkscape:connector-curvature="0" />
    </g>
    <path
       style="opacity:1;fill:#000000;fill-opacity:0.56976742;stroke:none;stroke-width:8.5;stroke-linecap:round;stroke-linejoin:round;stroke-miterlimit:4;stroke-dasharray:none;stroke-opacity:1"
       d="M 1500 180 A 240 240 0 0 0 1260 420 A 240 240 0 0 0 1260.707 433.77344 A 240 240 0 0 1 1269.0742 430.71875 A 240 240 0 0 1 1292.3203 424.7832 A 240 240 0 0 1 1316.0391 421.19922 A 240 240 0 0 1 1340 420 A 240 240 0 0 1 1347.2969 420.12305 A 240 240 0 0 1 1371.207 422.08789 A 240 240 0 0 1 1394.8008 426.42969 A 240 240 0 0 1 1417.8418 433.10742 A 240 240 0 0 1 1440.1035 442.05078 A 240 240 0 0 1 1461.3594 453.16992 A 240 240 0 0 1 1481.4004 466.35742 A 240 240 0 0 1 1500.0234 481.48047 A 240 240 0 0 1 1510.8145 472.00195 A 240 240 0 0 1 1530.3281 458.04688 A 240 240 0 0 1 1551.1367 446.10938 A 240 240 0 0 1 1573.0332 436.31055 A 240 240 0 0 1 1595.8008 428.74609 A 240 240 0 0 1 1619.207 423.49219 A 240 240 0 0 1 1643.0234 420.60156 A 240 240 0 0 1 1660 420 A 240 240 0 0 1 1683.9609 421.19922 A 240 240 0 0 1 1707.6797 424.7832 A 240 240 0 0 1 1730.9258 430.71875 A 240 240 0 0 1 1739.3105 433.7793 A 240 240 0 0 0 1740 420 A 240 240 0 0 0 1500 180 z M 1739.3105 433.7793 A 240 240 0 0 1 1579.2988 646.17969 A 240 240 0 0 0 1500.0332 481.48047 A 240 240 0 0 0 1492.8008 487.83398 A 240 240 0 0 0 1476.4473 505.38867 A 240 240 0 0 0 1461.9297 524.48633 A 240 240 0 0 0 1449.3906 544.9375 A 240 240 0 0 0 1438.9551 566.53906 A 240 240 0 0 0 1430.7305 589.07422 A 240 240 0 0 0 1424.793 612.32031 A 240 240 0 0 0 1421.209 636.03906 A 240 240 0 0 0 1420.7012 646.2207 A 240 240 0 0 0 1429.123 649.03125 A 240 240 0 0 0 1452.3457 655.04883 A 240 240 0 0 0 1476.0547 658.7168 A 240 240 0 0 0 1500.0098 660 A 240 240 0 0 0 1502.9219 659.97852 A 240 240 0 0 0 1526.8633 658.46094 A 240 240 0 0 0 1550.5332 654.55859 A 240 240 0 0 0 1573.6953 648.31445 A 240 240 0 0 0 1579.2891 646.1875 A 240 240 0 0 1 1580 660 A 240 240 0 0 1 1499.998 838.49805 A 240 240 0 0 0 1660 900 A 240 240 0 0 0 1900 660 A 240 240 0 0 0 1739.3105 433.7793 z M 1260.707 433.77344 A 240 240 0 0 0 1100 660 A 240 240 0 0 0 1340 900 A 240 240 0 0 0 1499.9766 838.51953 A 240 240 0 0 1 1499.1914 837.78906 A 240 240 0 0 1 1490.959 830.11914 A 240 240 0 0 1 1487.834 827.20898 A 240 240 0 0 1 1482.2305 820.82812 A 240 240 0 0 1 1476.0781 813.82617 A 240 240 0 0 1 1474.3125 811.81641 A 240 240 0 0 1 1472.002 809.18555 A 240 240 0 0 1 1467.0625 802.2793 A 240 240 0 0 1 1464.5938 798.82617 A 240 240 0 0 1 1458.0469 789.67188 A 240 240 0 0 1 1453.8105 782.28516 A 240 240 0 0 1 1449.4316 774.6543 A 240 240 0 0 1 1447.8613 771.91797 A 240 240 0 0 1 1446.1094 768.86328 A 240 240 0 0 1 1442.6289 761.08789 A 240 240 0 0 1 1438.5117 751.88672 A 240 240 0 0 1 1436.3105 746.9668 A 240 240 0 0 1 1433.6406 738.93164 A 240 240 0 0 1 1433.1367 737.41602 A 240 240 0 0 1 1428.7461 724.19922 A 240 240 0 0 1 1426.8906 715.93359 A 240 240 0 0 1 1424.2578 704.20703 A 240 240 0 0 1 1423.4922 700.79297 A 240 240 0 0 1 1422.4707 692.37695 A 240 240 0 0 1 1421.9668 688.2207 A 240 240 0 0 1 1421.0234 680.45508 A 240 240 0 0 1 1420.6016 676.97656 A 240 240 0 0 1 1420 660 A 240 240 0 0 1 1420.6895 646.2207 A 240 240 0 0 1 1260.707 433.77344 z "
       transform="translate(0,52.362161)"
       id="path4215" />
    <path
       style="opacity:1;fill:#000000;fill-opacity:0.46511629;stroke:none;stroke-width:8.5;stroke-linecap:round;stroke-linejoin:round;stroke-miterlimit:4;stroke-dasharray:none;stroke-opacity:1"
       d="M 1421.0234 680.45508 A 240 240 0 0 1 1420 660 A 240 240 0 0 0 1420.6016 676.97656 A 240 240 0 0 0 1421.0234 680.45508 z "
       id="path4259"
       transform="translate(0,52.362161)" />
    <path
       style="opacity:1;fill:#000000;fill-opacity:0.46511629;stroke:none;stroke-width:8.5;stroke-linecap:round;stroke-linejoin:round;stroke-miterlimit:4;stroke-dasharray:none;stroke-opacity:1"
       d="M 1424.2578 704.20703 A 240 240 0 0 1 1422.4707 692.37695 A 240 240 0 0 0 1423.4922 700.79297 A 240 240 0 0 0 1424.2578 704.20703 z "
       id="path4257"
       transform="translate(0,52.362161)" />
    <path
       style="opacity:1;fill:#000000;fill-opacity:0.46511629;stroke:none;stroke-width:8.5;stroke-linecap:round;stroke-linejoin:round;stroke-miterlimit:4;stroke-dasharray:none;stroke-opacity:1"
       d="M 1429.8477 727.51562 A 240 240 0 0 1 1426.8906 715.93359 A 240 240 0 0 0 1428.7461 724.19922 A 240 240 0 0 0 1429.8477 727.51562 z "
       id="path4255"
       transform="translate(0,52.362161)" />
    <path
       style="opacity:1;fill:#000000;fill-opacity:0.46511629;stroke:none;stroke-width:8.5;stroke-linecap:round;stroke-linejoin:round;stroke-miterlimit:4;stroke-dasharray:none;stroke-opacity:1"
       d="M 1437.7441 750.16992 A 240 240 0 0 1 1433.6406 738.93164 A 240 240 0 0 0 1436.3105 746.9668 A 240 240 0 0 0 1437.7441 750.16992 z "
       id="path4253"
       transform="translate(0,52.362161)" />
    <path
       style="opacity:1;fill:#000000;fill-opacity:0.46511629;stroke:none;stroke-width:8.5;stroke-linecap:round;stroke-linejoin:round;stroke-miterlimit:4;stroke-dasharray:none;stroke-opacity:1"
       d="M 1447.8613 771.91797 A 240 240 0 0 1 1442.6289 761.08789 A 240 240 0 0 0 1446.1094 768.86328 A 240 240 0 0 0 1447.8613 771.91797 z "
       id="path4251"
       transform="translate(0,52.362161)" />
    <path
       style="opacity:1;fill:#000000;fill-opacity:0.46511629;stroke:none;stroke-width:8.5;stroke-linecap:round;stroke-linejoin:round;stroke-miterlimit:4;stroke-dasharray:none;stroke-opacity:1"
       d="M 1460.0898 792.52734 A 240 240 0 0 1 1453.8105 782.28516 A 240 240 0 0 0 1458.0469 789.67188 A 240 240 0 0 0 1460.0898 792.52734 z "
       id="path4249"
       transform="translate(0,52.362161)" />
    <path
       style="opacity:1;fill:#000000;fill-opacity:0.46511629;stroke:none;stroke-width:8.5;stroke-linecap:round;stroke-linejoin:round;stroke-miterlimit:4;stroke-dasharray:none;stroke-opacity:1"
       d="M 1474.3125 811.81641 A 240 240 0 0 1 1467.0625 802.2793 A 240 240 0 0 0 1472.002 809.18555 A 240 240 0 0 0 1474.3125 811.81641 z "
       id="path4247"
       transform="translate(0,52.362161)" />
    <path
       style="opacity:1;fill:#000000;fill-opacity:0.46511629;stroke:none;stroke-width:8.5;stroke-linecap:round;stroke-linejoin:round;stroke-miterlimit:4;stroke-dasharray:none;stroke-opacity:1"
       d="M 1490.3984 829.59766 A 240 240 0 0 1 1482.2305 820.82812 A 240 240 0 0 0 1487.834 827.20898 A 240 240 0 0 0 1490.3984 829.59766 z "
       id="path4245"
       transform="translate(0,52.362161)" />
    <path
       style="opacity:1;fill:#000000;fill-opacity:0.46511629;stroke:none;stroke-width:8.5;stroke-linecap:round;stroke-linejoin:round;stroke-miterlimit:4;stroke-dasharray:none;stroke-opacity:1"
       d="M 1499.998 838.49805 A 240 240 0 0 1 1499.1914 837.78906 A 240 240 0 0 0 1499.9766 838.51953 A 240 240 0 0 0 1499.998 838.49805 z "
       id="path4243"
       transform="translate(0,52.362161)" />
  </g>
</svg>
