<?xml version="1.0" encoding="UTF-8" standalone="no"?>
<!-- Created with Inkscape (http://www.inkscape.org/) -->

<svg
   xmlns:dc="http://purl.org/dc/elements/1.1/"
   xmlns:cc="http://creativecommons.org/ns#"
   xmlns:rdf="http://www.w3.org/1999/02/22-rdf-syntax-ns#"
   xmlns:svg="http://www.w3.org/2000/svg"
   xmlns="http://www.w3.org/2000/svg"
   xmlns:sodipodi="http://sodipodi.sourceforge.net/DTD/sodipodi-0.dtd"
   xmlns:inkscape="http://www.inkscape.org/namespaces/inkscape"
   width="1200"
   height="1000"
   viewBox="0 0 1200 1000"
   id="svg2"
   version="1.1"
   inkscape:version="0.91 r13725"
   sodipodi:docname="figure-cuts.svg">
  <defs
     id="defs4" />
  <sodipodi:namedview
     id="base"
     pagecolor="#ffffff"
     bordercolor="#666666"
     borderopacity="1.0"
     inkscape:pageopacity="0.0"
     inkscape:pageshadow="2"
     inkscape:zoom="0.49497475"
     inkscape:cx="1124.8161"
     inkscape:cy="546.0347"
     inkscape:document-units="px"
     inkscape:current-layer="layer1"
     showgrid="false"
     units="px"
     borderlayer="true"
     inkscape:showpageshadow="false"
     inkscape:window-width="1366"
     inkscape:window-height="715"
     inkscape:window-x="-8"
     inkscape:window-y="-8"
     inkscape:window-maximized="1" />
  <metadata
     id="metadata7">
    <rdf:RDF>
      <cc:Work
         rdf:about="">
        <dc:format>image/svg+xml</dc:format>
        <dc:type
           rdf:resource="http://purl.org/dc/dcmitype/StillImage" />
        <dc:title />
      </cc:Work>
    </rdf:RDF>
  </metadata>
  <g
     inkscape:label="Layer 1"
     inkscape:groupmode="layer"
     id="layer1"
     transform="translate(0,-52.362161)">
    <text
       xml:space="preserve"
       style="font-style:normal;font-weight:normal;font-size:42.99839401px;line-height:125%;font-family:sans-serif;letter-spacing:0px;word-spacing:0px;fill:#000000;fill-opacity:1;stroke:none;stroke-width:1px;stroke-linecap:butt;stroke-linejoin:miter;stroke-opacity:1"
       x="852.8186"
       y="1022.9056"
       id="text4212"
       sodipodi:linespacing="125%"><tspan
         sodipodi:role="line"
         id="tspan4214"
         x="852.8186"
         y="1022.9056"
         style="font-style:normal;font-variant:normal;font-weight:normal;font-stretch:normal;font-family:Consolas;-inkscape-font-specification:Consolas">рисунок  2</tspan></text>
    <g
       id="g4241"
       transform="matrix(2.1422495,0,0,2.1422495,128.70513,-1402.1451)">
      <path
         id="path4150"
         transform="translate(0,52.362161)"
         d="m -1.1992188,680 0,38.80078 -38.8007812,0 0,2.40039 38.8007812,0 0,37.59961 -38.8007812,0 0,2.40039 38.8007812,0 0,37.59961 -38.8007812,0 0,2.40039 38.8007812,0 0,37.59961 -38.8007812,0 0,2.40039 38.8007812,0 0,37.59961 -38.8007812,0 0,2.40039 38.8007812,0 0,37.59961 -38.8007812,0 0,2.40039 38.8007812,0 0,37.59961 -38.8007812,0 0,2.40039 38.8007812,0 0,37.59961 -38.8007812,0 0,2.40042 38.8007812,0 0,38.7988 2.3984376,0 0,-38.7988 37.6015622,0 0,38.7988 2.398438,0 0,-38.7988 37.601562,0 0,38.7988 2.398438,0 0,-38.7988 37.601561,0 0,38.7988 2.39844,0 0,-38.7988 37.60156,0 0,38.7988 2.39844,0 0,-38.7988 37.60156,0 0,38.7988 2.39844,0 0,-38.7988 37.60156,0 0,38.7988 2.39844,0 0,-38.7988 37.60156,0 0,38.7988 2.39844,0 0,-38.7988 37.60156,0 0,38.7988 2.39844,0 0,-38.7988 37.60156,0 0,38.7988 2.39844,0 0,-38.7988 37.60156,0 0,38.7988 2.39844,0 0,-38.7988 37.60156,0 0,38.7988 2.39844,0 0,-38.7988 38.80078,0 0,-2.40042 -38.80078,0 0,-37.59961 38.80078,0 0,-2.40039 -38.80078,0 0,-37.59961 38.80078,0 0,-2.40039 -38.80078,0 0,-37.59961 38.80078,0 0,-2.40039 -38.80078,0 0,-37.59961 38.80078,0 0,-2.40039 -38.80078,0 0,-37.59961 38.80078,0 0,-2.40039 -38.80078,0 0,-37.59961 38.80078,0 0,-2.40039 -38.80078,0 0,-37.59961 38.80078,0 0,-2.40039 -38.80078,0 0,-38.80078 -2.39844,0 0,38.80078 -37.60156,0 0,-38.80078 -2.39844,0 0,38.80078 -37.60156,0 0,-38.80078 -2.39844,0 0,38.80078 -37.60156,0 0,-38.80078 -2.39844,0 0,38.80078 -37.60156,0 0,-38.80078 -2.39844,0 0,38.80078 -37.60156,0 0,-38.80078 -2.39844,0 0,38.80078 -37.60156,0 0,-38.80078 -2.39844,0 0,38.80078 -37.60156,0 0,-38.80078 -2.39844,0 0,38.80078 -37.60156,0 0,-38.80078 -2.39844,0 0,38.80078 -37.601561,0 0,-38.80078 -2.398438,0 0,38.80078 -37.601562,0 0,-38.80078 -2.398438,0 0,38.80078 -37.6015622,0 0,-38.80078 -2.3984376,0 z m 2.3984376,41.20117 37.6015622,0 0,37.59961 -37.6015622,0 0,-37.59961 z m 40.0000002,0 37.601562,0 0,37.59961 -37.601562,0 0,-37.59961 z m 40,0 37.601561,0 0,37.59961 -37.601561,0 0,-37.59961 z m 40.000001,0 37.60156,0 0,37.59961 -37.60156,0 0,-37.59961 z m 40,0 37.60156,0 0,37.59961 -37.60156,0 0,-37.59961 z m 40,0 37.60156,0 0,37.59961 -37.60156,0 0,-37.59961 z m 40,0 37.60156,0 0,37.59961 -37.60156,0 0,-37.59961 z m 40,0 37.60156,0 0,37.59961 -37.60156,0 0,-37.59961 z m 40,0 37.60156,0 0,37.59961 -37.60156,0 0,-37.59961 z m 40,0 37.60156,0 0,37.59961 -37.60156,0 0,-37.59961 z m 40,0 37.60156,0 0,37.59961 -37.60156,0 0,-37.59961 z m -400.0000012,40 37.6015622,0 0,37.59961 -37.6015622,0 0,-37.59961 z m 40.0000002,0 37.601562,0 0,37.59961 -37.601562,0 0,-37.59961 z m 40,0 37.601561,0 0,37.59961 -37.601561,0 0,-37.59961 z m 40.000001,0 37.60156,0 0,37.59961 -37.60156,0 0,-37.59961 z m 40,0 37.60156,0 0,37.59961 -37.60156,0 0,-37.59961 z m 40,0 37.60156,0 0,37.59961 -37.60156,0 0,-37.59961 z m 40,0 37.60156,0 0,37.59961 -37.60156,0 0,-37.59961 z m 40,0 37.60156,0 0,37.59961 -37.60156,0 0,-37.59961 z m 40,0 37.60156,0 0,37.59961 -37.60156,0 0,-37.59961 z m 40,0 37.60156,0 0,37.59961 -37.60156,0 0,-37.59961 z m 40,0 37.60156,0 0,37.59961 -37.60156,0 0,-37.59961 z m -400.0000012,40 37.6015622,0 0,37.59961 -37.6015622,0 0,-37.59961 z m 40.0000002,0 37.601562,0 0,37.59961 -37.601562,0 0,-37.59961 z m 40,0 37.601561,0 0,37.59961 -37.601561,0 0,-37.59961 z m 40.000001,0 37.60156,0 0,37.59961 -37.60156,0 0,-37.59961 z m 40,0 37.60156,0 0,37.59961 -37.60156,0 0,-37.59961 z m 40,0 37.60156,0 0,37.59961 -37.60156,0 0,-37.59961 z m 40,0 37.60156,0 0,37.59961 -37.60156,0 0,-37.59961 z m 40,0 37.60156,0 0,37.59961 -37.60156,0 0,-37.59961 z m 40,0 37.60156,0 0,37.59961 -37.60156,0 0,-37.59961 z m 40,0 37.60156,0 0,37.59961 -37.60156,0 0,-37.59961 z m 40,0 37.60156,0 0,37.59961 -37.60156,0 0,-37.59961 z m -400.0000012,40 37.6015622,0 0,37.59961 -37.6015622,0 0,-37.59961 z m 40.0000002,0 37.601562,0 0,37.59961 -37.601562,0 0,-37.59961 z m 40,0 37.601561,0 0,37.59961 -37.601561,0 0,-37.59961 z m 40.000001,0 37.60156,0 0,37.59961 -37.60156,0 0,-37.59961 z m 40,0 37.60156,0 0,37.59961 -37.60156,0 0,-37.59961 z m 40,0 37.60156,0 0,37.59961 -37.60156,0 0,-37.59961 z m 40,0 37.60156,0 0,37.59961 -37.60156,0 0,-37.59961 z m 40,0 37.60156,0 0,37.59961 -37.60156,0 0,-37.59961 z m 40,0 37.60156,0 0,37.59961 -37.60156,0 0,-37.59961 z m 40,0 37.60156,0 0,37.59961 -37.60156,0 0,-37.59961 z m 40,0 37.60156,0 0,37.59961 -37.60156,0 0,-37.59961 z m -400.0000012,40 37.6015622,0 0,37.59961 -37.6015622,0 0,-37.59961 z m 40.0000002,0 37.601562,0 0,37.59961 -37.601562,0 0,-37.59961 z m 40,0 37.601561,0 0,37.59961 -37.601561,0 0,-37.59961 z m 40.000001,0 37.60156,0 0,37.59961 -37.60156,0 0,-37.59961 z m 40,0 37.60156,0 0,37.59961 -37.60156,0 0,-37.59961 z m 40,0 37.60156,0 0,37.59961 -37.60156,0 0,-37.59961 z m 40,0 37.60156,0 0,37.59961 -37.60156,0 0,-37.59961 z m 40,0 37.60156,0 0,37.59961 -37.60156,0 0,-37.59961 z m 40,0 37.60156,0 0,37.59961 -37.60156,0 0,-37.59961 z m 40,0 37.60156,0 0,37.59961 -37.60156,0 0,-37.59961 z m 40,0 37.60156,0 0,37.59961 -37.60156,0 0,-37.59961 z m -400.0000012,40 37.6015622,0 0,37.59961 -37.6015622,0 0,-37.59961 z m 40.0000002,0 37.601562,0 0,37.59961 -37.601562,0 0,-37.59961 z m 40,0 37.601561,0 0,37.59961 -37.601561,0 0,-37.59961 z m 40.000001,0 37.60156,0 0,37.59961 -37.60156,0 0,-37.59961 z m 40,0 37.60156,0 0,37.59961 -37.60156,0 0,-37.59961 z m 40,0 37.60156,0 0,37.59961 -37.60156,0 0,-37.59961 z m 40,0 37.60156,0 0,37.59961 -37.60156,0 0,-37.59961 z m 40,0 37.60156,0 0,37.59961 -37.60156,0 0,-37.59961 z m 40,0 37.60156,0 0,37.59961 -37.60156,0 0,-37.59961 z m 40,0 37.60156,0 0,37.59961 -37.60156,0 0,-37.59961 z m 40,0 37.60156,0 0,37.59961 -37.60156,0 0,-37.59961 z m -400.0000012,40 37.6015622,0 0,37.59961 -37.6015622,0 0,-37.59961 z m 40.0000002,0 37.601562,0 0,37.59961 -37.601562,0 0,-37.59961 z m 40,0 37.601561,0 0,37.59961 -37.601561,0 0,-37.59961 z m 40.000001,0 37.60156,0 0,37.59961 -37.60156,0 0,-37.59961 z m 40,0 37.60156,0 0,37.59961 -37.60156,0 0,-37.59961 z m 40,0 37.60156,0 0,37.59961 -37.60156,0 0,-37.59961 z m 40,0 37.60156,0 0,37.59961 -37.60156,0 0,-37.59961 z m 40,0 37.60156,0 0,37.59961 -37.60156,0 0,-37.59961 z m 40,0 37.60156,0 0,37.59961 -37.60156,0 0,-37.59961 z m 40,0 37.60156,0 0,37.59961 -37.60156,0 0,-37.59961 z m 40,0 37.60156,0 0,37.59961 -37.60156,0 0,-37.59961 z"
         style="color:#000000;font-style:normal;font-variant:normal;font-weight:normal;font-stretch:normal;font-size:medium;line-height:normal;font-family:sans-serif;text-indent:0;text-align:start;text-decoration:none;text-decoration-line:none;text-decoration-style:solid;text-decoration-color:#000000;letter-spacing:normal;word-spacing:normal;text-transform:none;direction:ltr;block-progression:tb;writing-mode:lr-tb;baseline-shift:baseline;text-anchor:start;white-space:normal;clip-rule:nonzero;display:inline;overflow:visible;visibility:visible;opacity:1;isolation:auto;mix-blend-mode:normal;color-interpolation:sRGB;color-interpolation-filters:linearRGB;solid-color:#000000;solid-opacity:1;fill:#8c8c8c;fill-opacity:1;fill-rule:evenodd;stroke:none;stroke-width:2.4000001;stroke-linecap:butt;stroke-linejoin:miter;stroke-miterlimit:4;stroke-dasharray:none;stroke-dashoffset:0;stroke-opacity:1;color-rendering:auto;image-rendering:auto;shape-rendering:auto;text-rendering:auto;enable-background:accumulate"
         inkscape:connector-curvature="0" />
      <path
         sodipodi:nodetypes="cccccccccc"
         inkscape:connector-curvature="0"
         id="path4146"
         d="m 0,892.36216 160,160.00004 80,0 40,-40 80,0 80,-80.00004 -80,0 L 200,772.362 80,892.36216 Z"
         style="fill:#dcdcdc;fill-opacity:0.66666667;fill-rule:evenodd;stroke:#000000;stroke-width:3.4000001;stroke-linecap:butt;stroke-linejoin:miter;stroke-miterlimit:4;stroke-dasharray:none;stroke-opacity:1" />
    </g>
  </g>
</svg>
