<?xml version="1.0" encoding="UTF-8" standalone="no"?>
<!-- Created with Inkscape (http://www.inkscape.org/) -->

<svg
   xmlns:dc="http://purl.org/dc/elements/1.1/"
   xmlns:cc="http://creativecommons.org/ns#"
   xmlns:rdf="http://www.w3.org/1999/02/22-rdf-syntax-ns#"
   xmlns:svg="http://www.w3.org/2000/svg"
   xmlns="http://www.w3.org/2000/svg"
   xmlns:sodipodi="http://sodipodi.sourceforge.net/DTD/sodipodi-0.dtd"
   xmlns:inkscape="http://www.inkscape.org/namespaces/inkscape"
   width="120mm"
   height="50mm"
   viewBox="0 0 425.19685 177.16535"
   id="svg2"
   version="1.1"
   inkscape:version="0.91 r13725"
   sodipodi:docname="metro2.svg">
  <defs
     id="defs4" />
  <sodipodi:namedview
     id="base"
     pagecolor="#ffffff"
     bordercolor="#666666"
     borderopacity="1.0"
     inkscape:pageopacity="0.0"
     inkscape:pageshadow="2"
     inkscape:zoom="2.8284272"
     inkscape:cx="187.3533"
     inkscape:cy="117.85973"
     inkscape:document-units="mm"
     inkscape:current-layer="layer1"
     showgrid="false"
     borderlayer="true"
     inkscape:showpageshadow="false"
     inkscape:window-width="1366"
     inkscape:window-height="715"
     inkscape:window-x="-8"
     inkscape:window-y="-8"
     inkscape:window-maximized="1"
     showguides="false" />
  <metadata
     id="metadata7">
    <rdf:RDF>
      <cc:Work
         rdf:about="">
        <dc:format>image/svg+xml</dc:format>
        <dc:type
           rdf:resource="http://purl.org/dc/dcmitype/StillImage" />
        <dc:title />
      </cc:Work>
    </rdf:RDF>
  </metadata>
  <g
     inkscape:label="Layer 1"
     inkscape:groupmode="layer"
     id="layer1"
     transform="translate(0,-875.19685)">
    <g
       id="g4245"
       transform="translate(92.977918,0)">
      <path
         transform="translate(0,875.19684)"
         id="path4198"
         d="m 138.0332,33.578125 a 6.0950976,6.0950976 0 0 0 -6.00195,6.179687 l 0,12.359376 -31.17969,0 a 6.0950976,6.0950976 0 0 0 -6.095701,6.09375 l 0,18.457031 a 6.0950976,6.0950976 0 0 0 6.095701,6.09375 l 31.17969,0 0,25.365231 -12.21484,0 a 6.0950976,6.0950976 0 1 0 0,12.18946 l 17.73632,0 a 6.0950976,6.0950976 0 0 0 6.66602,-6.19532 l 0,-74.363278 a 6.0950976,6.0950976 0 0 0 -6.18555,-6.179687 z m -31.08789,30.728516 25.08594,0 0,6.265625 -25.08594,0 0,-6.265625 z"
         style="color:#000000;font-style:normal;font-variant:normal;font-weight:normal;font-stretch:normal;font-size:medium;line-height:normal;font-family:sans-serif;text-indent:0;text-align:start;text-decoration:none;text-decoration-line:none;text-decoration-style:solid;text-decoration-color:#000000;letter-spacing:normal;word-spacing:normal;text-transform:none;direction:ltr;block-progression:tb;writing-mode:lr-tb;baseline-shift:baseline;text-anchor:start;white-space:normal;clip-rule:nonzero;display:inline;overflow:visible;visibility:visible;opacity:1;isolation:auto;mix-blend-mode:normal;color-interpolation:sRGB;color-interpolation-filters:linearRGB;solid-color:#000000;solid-opacity:1;fill:#d7d7d7;fill-opacity:1;fill-rule:evenodd;stroke:#5f5f5f;stroke-width:0.88582677;stroke-linecap:round;stroke-linejoin:round;stroke-miterlimit:4;stroke-dasharray:none;stroke-dashoffset:0;stroke-opacity:1;color-rendering:auto;image-rendering:auto;shape-rendering:auto;text-rendering:auto;enable-background:accumulate"
         inkscape:connector-curvature="0" />
      <text
         sodipodi:linespacing="125%"
         id="text4136"
         y="1038.486"
         x="97.682129"
         style="font-style:normal;font-weight:normal;font-size:13.41703796px;line-height:125%;font-family:sans-serif;letter-spacing:0px;word-spacing:0px;fill:#000000;fill-opacity:1;stroke:none;stroke-width:1px;stroke-linecap:butt;stroke-linejoin:miter;stroke-opacity:1"
         xml:space="preserve"><tspan
           style="font-style:normal;font-variant:normal;font-weight:normal;font-stretch:normal;font-size:12.5px;font-family:'PT Serif';-inkscape-font-specification:'PT Serif'"
           y="1038.486"
           x="97.682129"
           id="tspan4138"
           sodipodi:role="line">рис. M3</tspan></text>
      <g
         style="stroke:#919191;stroke-opacity:1"
         transform="matrix(0.9532988,0,0,0.9532988,6.3034613,44.464882)"
         id="g4302">
        <path
           style="fill:none;fill-rule:evenodd;stroke:#919191;stroke-width:1.85844517;stroke-linecap:round;stroke-linejoin:miter;stroke-miterlimit:4;stroke-dasharray:none;stroke-opacity:1"
           d="m 60.403803,877.16982 0,149.88908"
           id="path4220"
           inkscape:connector-curvature="0"
           sodipodi:nodetypes="cc" />
        <path
           sodipodi:nodetypes="cc"
           inkscape:connector-curvature="0"
           id="path4222"
           d="m 79.891992,877.16982 0,149.88908"
           style="fill:none;fill-rule:evenodd;stroke:#919191;stroke-width:1.85844517;stroke-linecap:round;stroke-linejoin:miter;stroke-miterlimit:4;stroke-dasharray:none;stroke-opacity:1" />
        <path
           style="fill:none;fill-rule:evenodd;stroke:#919191;stroke-width:1.85844517;stroke-linecap:round;stroke-linejoin:miter;stroke-miterlimit:4;stroke-dasharray:none;stroke-opacity:1"
           d="m 99.380181,877.16982 0,149.88908"
           id="path4224"
           inkscape:connector-curvature="0"
           sodipodi:nodetypes="cc" />
        <path
           sodipodi:nodetypes="cc"
           inkscape:connector-curvature="0"
           id="path4226"
           d="m 118.86837,877.16982 0,149.88908"
           style="fill:none;fill-rule:evenodd;stroke:#919191;stroke-width:1.85844517;stroke-linecap:round;stroke-linejoin:miter;stroke-miterlimit:4;stroke-dasharray:none;stroke-opacity:1" />
        <path
           style="fill:none;fill-rule:evenodd;stroke:#919191;stroke-width:1.85844517;stroke-linecap:round;stroke-linejoin:miter;stroke-miterlimit:4;stroke-dasharray:none;stroke-opacity:1"
           d="m 138.35656,877.16982 0,149.88908"
           id="path4228"
           inkscape:connector-curvature="0"
           sodipodi:nodetypes="cc" />
        <path
           sodipodi:nodetypes="cc"
           inkscape:connector-curvature="0"
           id="path4230"
           d="m 157.84475,877.16982 0,149.88908"
           style="fill:none;fill-rule:evenodd;stroke:#919191;stroke-width:1.85844517;stroke-linecap:round;stroke-linejoin:miter;stroke-miterlimit:4;stroke-dasharray:none;stroke-opacity:1" />
        <path
           style="fill:none;fill-rule:evenodd;stroke:#919191;stroke-width:1.85844517;stroke-linecap:round;stroke-linejoin:miter;stroke-miterlimit:4;stroke-dasharray:none;stroke-opacity:1"
           d="m 177.33294,877.16982 0,149.88908"
           id="path4232"
           inkscape:connector-curvature="0"
           sodipodi:nodetypes="cc" />
        <path
           sodipodi:nodetypes="cc"
           inkscape:connector-curvature="0"
           id="path4245"
           d="m 193.81288,893.64979 -149.88908,0"
           style="fill:none;fill-rule:evenodd;stroke:#919191;stroke-width:1.85844517;stroke-linecap:round;stroke-linejoin:miter;stroke-miterlimit:4;stroke-dasharray:none;stroke-opacity:1" />
        <path
           style="fill:none;fill-rule:evenodd;stroke:#919191;stroke-width:1.85844517;stroke-linecap:round;stroke-linejoin:miter;stroke-miterlimit:4;stroke-dasharray:none;stroke-opacity:1"
           d="m 193.81288,913.13798 -149.88908,0"
           id="path4247"
           inkscape:connector-curvature="0"
           sodipodi:nodetypes="cc" />
        <path
           sodipodi:nodetypes="cc"
           inkscape:connector-curvature="0"
           id="path4249"
           d="m 193.81288,932.62617 -149.88908,0"
           style="fill:none;fill-rule:evenodd;stroke:#919191;stroke-width:1.85844517;stroke-linecap:round;stroke-linejoin:miter;stroke-miterlimit:4;stroke-dasharray:none;stroke-opacity:1" />
        <path
           style="fill:none;fill-rule:evenodd;stroke:#919191;stroke-width:1.85844517;stroke-linecap:round;stroke-linejoin:miter;stroke-miterlimit:4;stroke-dasharray:none;stroke-opacity:1"
           d="m 193.81288,952.11436 -149.88908,0"
           id="path4251"
           inkscape:connector-curvature="0"
           sodipodi:nodetypes="cc" />
        <path
           sodipodi:nodetypes="cc"
           inkscape:connector-curvature="0"
           id="path4253"
           d="m 193.81288,971.60255 -149.88908,0"
           style="fill:none;fill-rule:evenodd;stroke:#919191;stroke-width:1.85844517;stroke-linecap:round;stroke-linejoin:miter;stroke-miterlimit:4;stroke-dasharray:none;stroke-opacity:1" />
        <path
           style="fill:none;fill-rule:evenodd;stroke:#919191;stroke-width:1.85844517;stroke-linecap:round;stroke-linejoin:miter;stroke-miterlimit:4;stroke-dasharray:none;stroke-opacity:1"
           d="m 193.81288,991.09074 -149.88908,0"
           id="path4255"
           inkscape:connector-curvature="0"
           sodipodi:nodetypes="cc" />
        <path
           sodipodi:nodetypes="cc"
           inkscape:connector-curvature="0"
           id="path4257"
           d="m 193.81288,1010.5789 -149.88908,0"
           style="fill:none;fill-rule:evenodd;stroke:#919191;stroke-width:1.85844517;stroke-linecap:round;stroke-linejoin:miter;stroke-miterlimit:4;stroke-dasharray:none;stroke-opacity:1" />
        <path
           sodipodi:nodetypes="cc"
           inkscape:connector-curvature="0"
           id="path4233"
           d="m 193.81288,991.09074 -149.88908,0"
           style="fill:none;fill-rule:evenodd;stroke:#919191;stroke-width:1.85844517;stroke-linecap:round;stroke-linejoin:miter;stroke-miterlimit:4;stroke-dasharray:none;stroke-opacity:1" />
      </g>
      <path
         inkscape:connector-curvature="0"
         id="path4243"
         d="m 119.69992,952.2182 -18.45107,0 0,-18.69414 36.85794,0 0,55.77305"
         style="fill:none;fill-rule:evenodd;stroke:#000000;stroke-width:3.18897629;stroke-linecap:round;stroke-linejoin:miter;stroke-miterlimit:4;stroke-dasharray:none;stroke-opacity:1" />
      <path
         id="path4318"
         d="m 123.91128,933.53629 a 4.2907376,4.2907376 0 0 1 -4.29074,4.29075 4.2907376,4.2907376 0 0 1 -4.29074,-4.29075 4.2907376,4.2907376 0 0 1 4.29074,-4.29074 4.2907376,4.2907376 0 0 1 4.29074,4.29074 z"
         style="opacity:1;fill:#000000;fill-opacity:1;stroke:none;stroke-width:1.77165353;stroke-linecap:round;stroke-miterlimit:4;stroke-dasharray:none;stroke-opacity:1"
         inkscape:connector-curvature="0" />
      <path
         id="circle4391"
         d="m 123.06109,952.13072 a 3.4405513,3.4405513 0 0 1 -3.44055,3.44055 3.4405513,3.4405513 0 0 1 -3.44055,-3.44055 3.4405513,3.4405513 0 0 1 3.44055,-3.44055 3.4405513,3.4405513 0 0 1 3.44055,3.44055 z"
         style="opacity:1;fill:#ffffff;fill-opacity:1;stroke:#000000;stroke-width:1.70078743;stroke-linecap:round;stroke-miterlimit:4;stroke-dasharray:none;stroke-opacity:1"
         inkscape:connector-curvature="0" />
      <path
         id="path4219"
         d="m 103.73538,952.13072 a 2.6929118,2.6929118 0 0 1 -2.69291,2.69292 2.6929118,2.6929118 0 0 1 -2.692911,-2.69292 2.6929118,2.6929118 0 0 1 2.692911,-2.69291 2.6929118,2.6929118 0 0 1 2.69291,2.69291 z"
         style="opacity:1;fill:#c8c8c8;fill-opacity:1;stroke:#000000;stroke-width:1.70078743;stroke-linecap:round;stroke-miterlimit:4;stroke-dasharray:none;stroke-opacity:1"
         inkscape:connector-curvature="0" />
      <path
         inkscape:connector-curvature="0"
         style="opacity:1;fill:#c8c8c8;fill-opacity:1;stroke:#000000;stroke-width:1.70078743;stroke-linecap:round;stroke-miterlimit:4;stroke-dasharray:none;stroke-opacity:1"
         d="m 140.89151,952.13072 a 2.6929118,2.6929118 0 0 1 -2.69291,2.69292 2.6929118,2.6929118 0 0 1 -2.69291,-2.69292 2.6929118,2.6929118 0 0 1 2.69291,-2.69291 2.6929118,2.6929118 0 0 1 2.69291,2.69291 z"
         id="path4221" />
      <path
         id="path4223"
         d="m 103.73538,933.53629 a 2.6929118,2.6929118 0 0 1 -2.69291,2.69292 2.6929118,2.6929118 0 0 1 -2.692911,-2.69292 2.6929118,2.6929118 0 0 1 2.692911,-2.69291 2.6929118,2.6929118 0 0 1 2.69291,2.69291 z"
         style="opacity:1;fill:#c8c8c8;fill-opacity:1;stroke:#000000;stroke-width:1.70078743;stroke-linecap:round;stroke-miterlimit:4;stroke-dasharray:none;stroke-opacity:1"
         inkscape:connector-curvature="0" />
      <path
         id="path4227"
         d="m 140.89151,933.53629 a 2.6929118,2.6929118 0 0 1 -2.69291,2.69292 2.6929118,2.6929118 0 0 1 -2.69291,-2.69292 2.6929118,2.6929118 0 0 1 2.69291,-2.69291 2.6929118,2.6929118 0 0 1 2.69291,2.69291 z"
         style="opacity:1;fill:#c8c8c8;fill-opacity:1;stroke:#000000;stroke-width:1.70078743;stroke-linecap:round;stroke-miterlimit:4;stroke-dasharray:none;stroke-opacity:1"
         inkscape:connector-curvature="0" />
      <path
         inkscape:connector-curvature="0"
         style="opacity:1;fill:#c8c8c8;fill-opacity:1;stroke:#000000;stroke-width:1.70078743;stroke-linecap:round;stroke-miterlimit:4;stroke-dasharray:none;stroke-opacity:1"
         d="m 140.89151,914.95822 a 2.6929118,2.6929118 0 0 1 -2.69291,2.69292 2.6929118,2.6929118 0 0 1 -2.69291,-2.69292 2.6929118,2.6929118 0 0 1 2.69291,-2.69291 2.6929118,2.6929118 0 0 1 2.69291,2.69291 z"
         id="path4229" />
      <path
         id="path4231"
         d="m 140.89151,970.69242 a 2.6929118,2.6929118 0 0 1 -2.69291,2.69292 2.6929118,2.6929118 0 0 1 -2.69291,-2.69292 2.6929118,2.6929118 0 0 1 2.69291,-2.69291 2.6929118,2.6929118 0 0 1 2.69291,2.69291 z"
         style="opacity:1;fill:#c8c8c8;fill-opacity:1;stroke:#000000;stroke-width:1.70078743;stroke-linecap:round;stroke-miterlimit:4;stroke-dasharray:none;stroke-opacity:1"
         inkscape:connector-curvature="0" />
      <path
         inkscape:connector-curvature="0"
         style="opacity:1;fill:#c8c8c8;fill-opacity:1;stroke:#000000;stroke-width:1.70078743;stroke-linecap:round;stroke-miterlimit:4;stroke-dasharray:none;stroke-opacity:1"
         d="m 122.31345,989.27049 a 2.6929118,2.6929118 0 0 1 -2.69291,2.69292 2.6929118,2.6929118 0 0 1 -2.69291,-2.69292 2.6929118,2.6929118 0 0 1 2.69291,-2.69291 2.6929118,2.6929118 0 0 1 2.69291,2.69291 z"
         id="path4235" />
      <path
         inkscape:connector-curvature="0"
         style="opacity:1;fill:#ffffff;fill-opacity:1;stroke:#000000;stroke-width:1.70078743;stroke-linecap:round;stroke-miterlimit:4;stroke-dasharray:none;stroke-opacity:1"
         d="m 141.63915,989.27049 a 3.4405513,3.4405513 0 0 1 -3.44055,3.44056 3.4405513,3.4405513 0 0 1 -3.44055,-3.44056 3.4405513,3.4405513 0 0 1 3.44055,-3.44055 3.4405513,3.4405513 0 0 1 3.44055,3.44055 z"
         id="path4239" />
    </g>
  </g>
</svg>
