<?xml version="1.0" encoding="UTF-8" standalone="no"?>
<!-- Created with Inkscape (http://www.inkscape.org/) -->

<svg
   xmlns:dc="http://purl.org/dc/elements/1.1/"
   xmlns:cc="http://creativecommons.org/ns#"
   xmlns:rdf="http://www.w3.org/1999/02/22-rdf-syntax-ns#"
   xmlns:svg="http://www.w3.org/2000/svg"
   xmlns="http://www.w3.org/2000/svg"
   xmlns:sodipodi="http://sodipodi.sourceforge.net/DTD/sodipodi-0.dtd"
   xmlns:inkscape="http://www.inkscape.org/namespaces/inkscape"
   width="150mm"
   height="60mm"
   viewBox="0 0 531.49606 212.59842"
   id="svg2"
   version="1.1"
   inkscape:version="0.91 r13725"
   sodipodi:docname="Gears_and_Arrow.svg"
   inkscape:export-filename="C:\Users\Администратор\Desktop\NON-STAHP\Figures\Gears_and_Arrow.png"
   inkscape:export-xdpi="389.46667"
   inkscape:export-ydpi="389.46667">
  <defs
     id="defs4" />
  <sodipodi:namedview
     id="base"
     pagecolor="#ffffff"
     bordercolor="#666666"
     borderopacity="1.0"
     inkscape:pageopacity="0.0"
     inkscape:pageshadow="2"
     inkscape:zoom="1.4"
     inkscape:cx="239.99583"
     inkscape:cy="71.773218"
     inkscape:document-units="px"
     inkscape:current-layer="layer1"
     showgrid="false"
     borderlayer="true"
     inkscape:showpageshadow="false"
     inkscape:window-width="1440"
     inkscape:window-height="847"
     inkscape:window-x="-8"
     inkscape:window-y="-8"
     inkscape:window-maximized="1" />
  <metadata
     id="metadata7">
    <rdf:RDF>
      <cc:Work
         rdf:about="">
        <dc:format>image/svg+xml</dc:format>
        <dc:type
           rdf:resource="http://purl.org/dc/dcmitype/StillImage" />
        <dc:title />
      </cc:Work>
    </rdf:RDF>
  </metadata>
  <g
     inkscape:label="Layer 1"
     inkscape:groupmode="layer"
     id="layer1"
     transform="translate(0,-839.76378)">
    <path
       inkscape:connector-curvature="0"
       style="opacity:1;fill:#ffffff;fill-opacity:1;fill-rule:nonzero;stroke:#000000;stroke-width:1.41732299;stroke-linecap:square;stroke-linejoin:miter;stroke-miterlimit:4;stroke-dasharray:none;stroke-dashoffset:0;stroke-opacity:1"
       d="m 359.1878,969.62194 27.48187,0 0,27.55894 -27.48187,0 z"
       id="rect4227" />
    <path
       inkscape:connector-curvature="0"
       style="opacity:1;fill:#787878;fill-opacity:1;fill-rule:nonzero;stroke:#000000;stroke-width:1.41732299;stroke-linecap:square;stroke-linejoin:miter;stroke-miterlimit:4;stroke-dasharray:none;stroke-dashoffset:0;stroke-opacity:1"
       d="m 386.66967,969.62194 27.48189,0 0,27.55894 -27.48189,0 z"
       id="rect4229" />
    <path
       inkscape:connector-curvature="0"
       style="opacity:1;fill:#ffffff;fill-opacity:1;fill-rule:nonzero;stroke:#000000;stroke-width:1.41732299;stroke-linecap:square;stroke-linejoin:miter;stroke-miterlimit:4;stroke-dasharray:none;stroke-dashoffset:0;stroke-opacity:1"
       d="m 414.15156,969.62194 27.48187,0 0,27.55894 -27.48187,0 z"
       id="rect4231" />
    <path
       inkscape:connector-curvature="0"
       style="opacity:1;fill:#787878;fill-opacity:1;fill-rule:nonzero;stroke:#000000;stroke-width:1.41732299;stroke-linecap:square;stroke-linejoin:miter;stroke-miterlimit:4;stroke-dasharray:none;stroke-dashoffset:0;stroke-opacity:1"
       d="m 359.1878,942.06299 27.48187,0 0,27.55895 -27.48187,0 z"
       id="rect4233" />
    <path
       inkscape:connector-curvature="0"
       style="opacity:1;fill:none;fill-opacity:1;fill-rule:nonzero;stroke:#000000;stroke-width:1.41732299;stroke-linecap:square;stroke-linejoin:miter;stroke-miterlimit:4;stroke-dasharray:none;stroke-dashoffset:0;stroke-opacity:1"
       d="m 386.66967,942.06299 27.48189,0 0,27.55895 -27.48189,0 z"
       id="rect4235" />
    <path
       inkscape:connector-curvature="0"
       style="opacity:1;fill:#787878;fill-opacity:1;fill-rule:nonzero;stroke:#000000;stroke-width:1.41732299;stroke-linecap:square;stroke-linejoin:miter;stroke-miterlimit:4;stroke-dasharray:none;stroke-dashoffset:0;stroke-opacity:1"
       d="m 414.15156,942.06299 27.48187,0 0,27.55895 -27.48187,0 z"
       id="rect4237" />
    <path
       inkscape:connector-curvature="0"
       style="opacity:1;fill:#787878;fill-opacity:1;fill-rule:nonzero;stroke:#000000;stroke-width:1.41732299;stroke-linecap:square;stroke-linejoin:miter;stroke-miterlimit:4;stroke-dasharray:none;stroke-dashoffset:0;stroke-opacity:1"
       d="m 359.1878,914.50403 27.48187,0 0,27.55896 -27.48187,0 z"
       id="rect4239" />
    <path
       inkscape:connector-curvature="0"
       style="opacity:1;fill:#787878;fill-opacity:1;fill-rule:nonzero;stroke:#000000;stroke-width:1.41732299;stroke-linecap:square;stroke-linejoin:miter;stroke-miterlimit:4;stroke-dasharray:none;stroke-dashoffset:0;stroke-opacity:1"
       d="m 386.66967,914.50403 27.48189,0 0,27.55896 -27.48189,0 z"
       id="rect4241" />
    <path
       inkscape:connector-curvature="0"
       style="opacity:1;fill:#787878;fill-opacity:1;fill-rule:nonzero;stroke:#000000;stroke-width:1.41732299;stroke-linecap:square;stroke-linejoin:miter;stroke-miterlimit:4;stroke-dasharray:none;stroke-dashoffset:0;stroke-opacity:1"
       d="m 414.15156,914.50403 27.48187,0 0,27.55896 -27.48187,0 z"
       id="rect4243" />
    <path
       inkscape:connector-curvature="0"
       style="opacity:1;fill:#ffffff;fill-opacity:1;fill-rule:nonzero;stroke:#000000;stroke-width:1.41732299;stroke-linecap:square;stroke-linejoin:miter;stroke-miterlimit:4;stroke-dasharray:none;stroke-dashoffset:0;stroke-opacity:1"
       d="m 359.1878,886.9451 27.48187,0 0,27.55896 -27.48187,0 z"
       id="rect4245" />
    <path
       inkscape:connector-curvature="0"
       style="opacity:1;fill:#ffffff;fill-opacity:1;fill-rule:nonzero;stroke:#000000;stroke-width:1.41732299;stroke-linecap:square;stroke-linejoin:miter;stroke-miterlimit:4;stroke-dasharray:none;stroke-dashoffset:0;stroke-opacity:1"
       d="m 386.66967,886.9451 27.48189,0 0,27.55896 -27.48189,0 z"
       id="rect4247" />
    <path
       inkscape:connector-curvature="0"
       style="opacity:1;fill:#ffffff;fill-opacity:1;fill-rule:nonzero;stroke:#000000;stroke-width:1.41732299;stroke-linecap:square;stroke-linejoin:miter;stroke-miterlimit:4;stroke-dasharray:none;stroke-dashoffset:0;stroke-opacity:1"
       d="m 414.15156,886.9451 27.48187,0 0,27.55896 -27.48187,0 z"
       id="rect4249" />
    <path
       inkscape:connector-curvature="0"
       style="fill:#000000;fill-opacity:1;fill-rule:evenodd;stroke:#000000;stroke-width:0.67285925px;stroke-linecap:square;stroke-linejoin:miter;stroke-opacity:1"
       d="m 406.1769,955.84248 a 5.7662878,5.7824584 0 0 1 -5.76629,5.78245 5.7662878,5.7824584 0 0 1 -5.76628,-5.78245 5.7662878,5.7824584 0 0 1 5.76628,-5.78247 5.7662878,5.7824584 0 0 1 5.76629,5.78247 z"
       id="path4251" />
    <text
       xml:space="preserve"
       style="font-style:normal;font-variant:normal;font-weight:normal;font-stretch:normal;font-size:19.05279541px;line-height:125%;font-family:'Liberation Sans';-inkscape-font-specification:'Liberation Sans, Normal';text-align:center;letter-spacing:0px;word-spacing:0px;writing-mode:lr-tb;text-anchor:middle;fill:#000000;fill-opacity:1;stroke:none;stroke-width:1px;stroke-linecap:butt;stroke-linejoin:miter;stroke-opacity:1"
       x="141.42697"
       y="1034.835"
       id="text4391"
       sodipodi:linespacing="125%"><tspan
         sodipodi:role="line"
         id="tspan4393"
         x="141.42697"
         y="1034.835"
         style="font-style:italic;font-variant:normal;font-weight:normal;font-stretch:normal;font-family:'Linux Libertine G';-inkscape-font-specification:'Linux Libertine G Italic'">рис. 1</tspan></text>
    <text
       sodipodi:linespacing="125%"
       id="text4395"
       y="1034.835"
       x="400.19183"
       style="font-style:normal;font-variant:normal;font-weight:normal;font-stretch:normal;font-size:19.05279541px;line-height:125%;font-family:'Liberation Sans';-inkscape-font-specification:'Liberation Sans, Normal';text-align:center;letter-spacing:0px;word-spacing:0px;writing-mode:lr-tb;text-anchor:middle;fill:#000000;fill-opacity:1;stroke:none;stroke-width:1px;stroke-linecap:butt;stroke-linejoin:miter;stroke-opacity:1"
       xml:space="preserve"><tspan
         style="font-style:italic;font-variant:normal;font-weight:normal;font-stretch:normal;font-family:'Linux Libertine G';-inkscape-font-specification:'Linux Libertine G Italic'"
         y="1034.835"
         x="400.19183"
         id="tspan4397"
         sodipodi:role="line">рис. 2</tspan></text>
    <path
       style="fill:#646464;fill-opacity:1;fill-rule:evenodd;stroke:#464646;stroke-width:4;stroke-linecap:butt;stroke-linejoin:miter;stroke-miterlimit:4;stroke-dasharray:1.99999995, 1.99999995;stroke-dashoffset:0;stroke-opacity:1"
       d="m 107.11806,877.05673 a 25.151805,25.151805 0 0 0 -25.150292,25.15029 25.151805,25.151805 0 0 0 25.150292,25.15241 25.151805,25.151805 0 0 0 25.15241,-25.15241 25.151805,25.151805 0 0 0 -25.15241,-25.15029 z m 37.8979,23.51029 a 12.201034,12.201034 0 0 0 -12.20165,12.20164 12.201034,12.201034 0 0 0 12.20165,12.20165 12.201034,12.201034 0 0 0 12.20165,-12.20165 12.201034,12.201034 0 0 0 -12.20165,-12.20164 z m 18.0168,19.81551 a 12.201034,12.201034 0 0 0 -12.20165,12.20165 12.201034,12.201034 0 0 0 12.20165,12.19953 12.201034,12.201034 0 0 0 12.20165,-12.19953 12.201034,12.201034 0 0 0 -12.20165,-12.20165 z m -55.9147,7.73871 a 7.9445743,7.9445743 0 0 0 -7.943978,7.94398 7.9445743,7.9445743 0 0 0 7.943978,7.9461 7.9445743,7.9445743 0 0 0 7.94609,-7.9461 7.9445743,7.9445743 0 0 0 -7.94609,-7.94398 z m 0,16.65189 a 25.151805,25.151805 0 0 0 -25.150292,25.15029 25.151805,25.151805 0 0 0 25.150292,25.15241 25.151805,25.151805 0 0 0 25.15241,-25.15241 25.151805,25.151805 0 0 0 -25.15241,-25.15029 z m 67.7164,0 a 25.151805,25.151805 0 0 0 -25.15029,25.15029 25.151805,25.151805 0 0 0 25.15029,25.15241 25.151805,25.151805 0 0 0 25.15241,-25.15241 25.151805,25.151805 0 0 0 -25.15241,-25.15029 z m -33.8582,17.20632 a 7.9445743,7.9445743 0 0 0 -7.94399,7.94397 7.9445743,7.9445743 0 0 0 7.94399,7.9461 7.9445743,7.9445743 0 0 0 7.94609,-7.9461 7.9445743,7.9445743 0 0 0 -7.94609,-7.94397 z"
       id="circle4162"
       inkscape:connector-curvature="0" />
  </g>
</svg>
