<?xml version="1.0" encoding="UTF-8" standalone="no"?>
<!-- Created with Inkscape (http://www.inkscape.org/) -->

<svg
   xmlns:dc="http://purl.org/dc/elements/1.1/"
   xmlns:cc="http://creativecommons.org/ns#"
   xmlns:rdf="http://www.w3.org/1999/02/22-rdf-syntax-ns#"
   xmlns:svg="http://www.w3.org/2000/svg"
   xmlns="http://www.w3.org/2000/svg"
   xmlns:sodipodi="http://sodipodi.sourceforge.net/DTD/sodipodi-0.dtd"
   xmlns:inkscape="http://www.inkscape.org/namespaces/inkscape"
   width="50mm"
   height="30mm"
   viewBox="0 0 50 30"
   version="1.1"
   id="svg8"
   inkscape:version="0.92.1 r15371"
   sodipodi:docname="2018-serpinsky-a.svg">
  <defs
     id="defs2" />
  <sodipodi:namedview
     id="base"
     pagecolor="#ffffff"
     bordercolor="#666666"
     borderopacity="1.0"
     inkscape:pageopacity="0.0"
     inkscape:pageshadow="2"
     inkscape:zoom="2.8"
     inkscape:cx="94.347416"
     inkscape:cy="52.496414"
     inkscape:document-units="mm"
     inkscape:current-layer="layer1"
     showgrid="false"
     borderlayer="true"
     inkscape:showpageshadow="false"
     inkscape:window-width="1366"
     inkscape:window-height="715"
     inkscape:window-x="-8"
     inkscape:window-y="-8"
     inkscape:window-maximized="1" />
  <metadata
     id="metadata5">
    <rdf:RDF>
      <cc:Work
         rdf:about="">
        <dc:format>image/svg+xml</dc:format>
        <dc:type
           rdf:resource="http://purl.org/dc/dcmitype/StillImage" />
        <dc:title></dc:title>
      </cc:Work>
    </rdf:RDF>
  </metadata>
  <g
     inkscape:label="Layer 1"
     inkscape:groupmode="layer"
     id="layer1"
     transform="translate(0,-267)">
    <path
       style="opacity:1;fill:none;fill-opacity:1;stroke:#000000;stroke-width:0.28;stroke-linecap:round;stroke-linejoin:round;stroke-miterlimit:4;stroke-dasharray:none;stroke-dashoffset:0;stroke-opacity:1"
       d="m 8.5883824,270.96476 a 6.5646152,6.5646152 0 0 0 -6.5645358,6.56509 6.5646152,6.5646152 0 0 0 6.5645358,6.56454 6.5646152,6.5646152 0 0 0 0.932314,-0.0767 6.3635738,6.3635738 0 0 1 5.4449816,-4.10817 6.3635738,6.3635738 0 0 1 -4.561006,5.08939 6.5646152,6.5646152 0 0 0 -0.175016,1.47181 6.5646152,6.5646152 0 0 0 6.564534,6.56453 6.5646152,6.5646152 0 0 0 6.564537,-6.56453 6.5646152,6.5646152 0 0 0 -0.180018,-1.48237 6.3635738,6.3635738 0 0 1 -4.559894,-5.07661 6.3635738,6.3635738 0 0 1 5.46276,4.11095 6.5646152,6.5646152 0 0 0 0.918424,0.0717 6.5646152,6.5646152 0 0 0 0.931758,-0.0762 6.3635738,6.3635738 0 0 1 5.445537,-4.10873 6.3635738,6.3635738 0 0 1 -4.561561,5.08939 6.5646152,6.5646152 0 0 0 -0.174463,1.47181 6.5646152,6.5646152 0 0 0 6.564536,6.56453 6.5646152,6.5646152 0 0 0 6.564538,-6.56453 6.5646152,6.5646152 0 0 0 -0.18002,-1.48237 6.3635738,6.3635738 0 0 1 -4.559892,-5.07661 6.3635738,6.3635738 0 0 1 5.46276,4.11095 6.5646152,6.5646152 0 0 0 0.918424,0.0717 6.5646152,6.5646152 0 0 0 6.564535,-6.56453 6.5646152,6.5646152 0 0 0 -6.564535,-6.56511 6.5646152,6.5646152 0 0 0 -6.564535,6.56511 6.5646152,6.5646152 0 0 0 0.172237,1.45235 7.713423,7.713423 0 0 0 -1.813512,-0.22502 7.713423,7.713423 0 0 0 -1.813511,0.22836 6.5646152,6.5646152 0 0 0 0.172239,-1.45569 6.5646152,6.5646152 0 0 0 -6.564535,-6.56511 6.5646152,6.5646152 0 0 0 -6.564536,6.56511 6.5646152,6.5646152 0 0 0 0.172796,1.45569 7.713423,7.713423 0 0 0 -1.814069,-0.22836 7.713423,7.713423 0 0 0 -1.812956,0.22836 6.5646152,6.5646152 0 0 0 0.171684,-1.45569 6.5646152,6.5646152 0 0 0 -6.5645356,-6.56511 z"
       id="circle4628"
       inkscape:connector-curvature="0" />
  </g>
</svg>
