<?xml version="1.0" encoding="UTF-8" standalone="no"?>
<svg
   xmlns:dc="http://purl.org/dc/elements/1.1/"
   xmlns:cc="http://creativecommons.org/ns#"
   xmlns:rdf="http://www.w3.org/1999/02/22-rdf-syntax-ns#"
   xmlns:svg="http://www.w3.org/2000/svg"
   xmlns="http://www.w3.org/2000/svg"
   xmlns:sodipodi="http://sodipodi.sourceforge.net/DTD/sodipodi-0.dtd"
   xmlns:inkscape="http://www.inkscape.org/namespaces/inkscape"
   width="9cm"
   height="1.65cm"
   viewBox="0 0 255.11812 46.771654"
   version="1.2"
   id="svg5521"
   sodipodi:docname="presgrant.svg"
   inkscape:version="0.92.1 r15371">
  <metadata
     id="metadata5527">
    <rdf:RDF>
      <cc:Work
         rdf:about="">
        <dc:format>image/svg+xml</dc:format>
        <dc:type
           rdf:resource="http://purl.org/dc/dcmitype/StillImage" />
        <dc:title></dc:title>
      </cc:Work>
    </rdf:RDF>
  </metadata>
  <defs
     id="defs5525" />
  <sodipodi:namedview
     pagecolor="#ffffff"
     bordercolor="#666666"
     borderopacity="1"
     objecttolerance="10"
     gridtolerance="10"
     guidetolerance="10"
     inkscape:pageopacity="0"
     inkscape:pageshadow="2"
     inkscape:window-width="1366"
     inkscape:window-height="715"
     id="namedview5523"
     showgrid="false"
     inkscape:zoom="1.7019231"
     inkscape:cx="237.96838"
     inkscape:cy="102.1109"
     inkscape:window-x="-8"
     inkscape:window-y="-8"
     inkscape:window-maximized="1"
     inkscape:current-layer="svg5521"
     units="cm"
     borderlayer="true"
     inkscape:showpageshadow="false" />
  <g
     id="g6286"
     transform="translate(-1.2646676,-25.132124)">
    <g
       style="stroke-width:1.46883965"
       transform="matrix(0.68080953,0,0,0.68080953,-11.507438,17.048538)"
       id="g6178">
      <path
         inkscape:connector-curvature="0"
         id="path5468"
         d="M 95.742188,29.675781 H 77.390625 c -1.859375,0 -3.515625,1.160157 -4.152344,2.910157 l -7.109375,19.53125 c -0.640625,1.742187 -2.296875,2.902343 -4.152343,2.902343 h 18.351562 c 1.859375,0 3.519531,-1.164062 4.152344,-2.910156 L 91.59375,32.574219 c 0.636719,-1.742188 2.292969,-2.898438 4.148438,-2.898438"
         style="fill:#7e7e7e;fill-opacity:1;fill-rule:nonzero;stroke:none;stroke-width:1.46883965" />
      <path
         inkscape:connector-curvature="0"
         id="path5470"
         d="m 71.941406,32.113281 c 0.828125,-2.285156 3.019532,-3.820312 5.449219,-3.820312 h 1.832031 l 1.058594,-2.90625 c 0.519531,-1.421875 1.875,-2.367188 3.386719,-2.367188 H 68.683594 c -1.519531,0 -2.875,0.949219 -3.394531,2.375 l -5.804688,15.953125 c -0.523437,1.421875 -1.875,2.371094 -3.390625,2.371094 h 11.621094 z m 0,0"
         style="fill:#b2b2b2;fill-opacity:1;fill-rule:nonzero;stroke:none;stroke-width:1.46883965" />
      <g
         style="stroke-width:1.46883965"
         id="g6149">
        <path
           style="fill:#343434;fill-opacity:1;fill-rule:nonzero;stroke:none;stroke-width:1.46883965"
           d="m 101.32031,41.976563 c 0.39063,0 0.6875,-0.105469 0.89063,-0.316407 0.20703,-0.210937 0.30859,-0.496093 0.30859,-0.855468 0,-0.367188 -0.10547,-0.648438 -0.32031,-0.847657 -0.21484,-0.199218 -0.50781,-0.296875 -0.87891,-0.296875 h -0.5039 v 2.316407 z m -2.394529,-2.328125 c -0.390625,0 -0.6875,0.105468 -0.894531,0.316406 -0.203125,0.210937 -0.308594,0.496094 -0.308594,0.859375 0,0.363281 0.109375,0.648437 0.324219,0.847656 0.210938,0.195313 0.503906,0.296875 0.878906,0.296875 h 0.503907 v -2.320312 z m 1.890629,-1.199219 h 0.54687 c 0.375,0 0.71875,0.05078 1.03125,0.152344 0.3125,0.105468 0.58203,0.253906 0.8086,0.457031 0.22656,0.203125 0.40234,0.449219 0.52734,0.738281 0.125,0.292969 0.1875,0.625 0.1875,0.996094 0,0.378906 -0.0703,0.71875 -0.20703,1.011719 -0.13672,0.296875 -0.32031,0.546875 -0.55469,0.75 -0.23047,0.203125 -0.50391,0.359375 -0.8125,0.464843 -0.3125,0.105469 -0.63672,0.160157 -0.98047,0.160157 h -0.54687 v 0.808593 h -1.386722 v -0.808593 h -0.550782 c -0.371093,0 -0.714843,-0.05078 -1.03125,-0.15625 -0.3125,-0.101563 -0.582031,-0.253907 -0.804687,-0.453125 -0.222656,-0.203125 -0.394531,-0.449219 -0.519531,-0.742188 -0.125,-0.292969 -0.1875,-0.625 -0.1875,-0.996094 0,-0.378906 0.07031,-0.714843 0.207031,-1.011718 0.136719,-0.292969 0.320312,-0.542969 0.550781,-0.75 0.234375,-0.203125 0.503906,-0.359375 0.8125,-0.464844 0.308594,-0.105469 0.632813,-0.15625 0.972656,-0.15625 h 0.550782 v -0.828125 h 1.386722 z m 0,0"
           id="path5472"
           inkscape:connector-curvature="0" />
        <path
           style="fill:#343434;fill-opacity:1;fill-rule:nonzero;stroke:none;stroke-width:1.46883965"
           d="m 107.57813,39.027344 c -0.23829,0.105469 -0.44141,0.246094 -0.60547,0.425781 -0.16407,0.183594 -0.28907,0.390625 -0.375,0.636719 -0.0859,0.238281 -0.12891,0.5 -0.12891,0.78125 0,0.277344 0.043,0.539062 0.12891,0.785156 0.0859,0.246094 0.21484,0.457031 0.38281,0.636719 0.16797,0.179687 0.36719,0.324219 0.60547,0.425781 0.23437,0.101563 0.5,0.152344 0.80078,0.152344 0.30469,0 0.57422,-0.05078 0.8125,-0.15625 0.23828,-0.105469 0.44141,-0.25 0.60547,-0.433594 0.16406,-0.183594 0.28906,-0.394531 0.37109,-0.640625 0.0859,-0.238281 0.12891,-0.496094 0.12891,-0.769531 0,-0.289063 -0.0469,-0.554688 -0.13281,-0.796875 -0.0859,-0.246094 -0.21094,-0.457031 -0.375,-0.636719 -0.16407,-0.183594 -0.36719,-0.320312 -0.60547,-0.421875 -0.23828,-0.09766 -0.50782,-0.148437 -0.80469,-0.148437 -0.30078,0 -0.56641,0.05469 -0.80859,0.160156 m 2.15625,-1.160156 c 0.41015,0.164062 0.76171,0.390625 1.04687,0.683593 0.28906,0.292969 0.51563,0.636719 0.67578,1.027344 0.16406,0.394531 0.24219,0.824219 0.24219,1.292969 0,0.445312 -0.0781,0.867187 -0.24219,1.261719 -0.16015,0.394531 -0.38672,0.738281 -0.67969,1.03125 -0.28906,0.296875 -0.64062,0.527343 -1.04687,0.699218 -0.40625,0.167969 -0.85547,0.253907 -1.34375,0.253907 -0.48438,0 -0.92969,-0.08203 -1.33203,-0.246094 -0.40235,-0.164063 -0.75391,-0.390625 -1.04688,-0.683594 -0.29687,-0.292969 -0.52343,-0.636719 -0.68359,-1.03125 -0.16406,-0.398437 -0.24609,-0.828125 -0.24609,-1.285156 0,-0.449219 0.082,-0.871094 0.24609,-1.269531 0.16016,-0.394532 0.38672,-0.742188 0.68359,-1.03125 0.29297,-0.292969 0.64453,-0.523438 1.04688,-0.695313 0.40234,-0.171875 0.84765,-0.253906 1.33203,-0.253906 0.48828,0 0.9375,0.08203 1.34766,0.246094"
           id="path5474"
           inkscape:connector-curvature="0" />
        <path
           style="fill:#343434;fill-opacity:1;fill-rule:nonzero;stroke:none;stroke-width:1.46883965"
           d="m 114.50391,40.191406 h 2.73047 V 37.75 h 1.40625 v 6.238281 h -1.40625 v -2.503906 h -2.73047 v 2.503906 h -1.40625 V 37.75 h 1.40625 z m 0,0"
           id="path5476"
           inkscape:connector-curvature="0" />
        <path
           style="fill:#343434;fill-opacity:1;fill-rule:nonzero;stroke:none;stroke-width:1.46883965"
           d="m 122.59375,41.261719 c -0.10156,0.625 -0.24609,1.117187 -0.42578,1.46875 h 2.53125 v -3.734375 h -1.9375 c -0.004,0.882812 -0.0625,1.636719 -0.16797,2.265625 m 3.50391,1.46875 H 127 v 0.382812 l -0.12109,2.179688 h -1.25782 l -0.0547,-1.304688 h -4.21875 l -0.0742,1.304688 h -1.26563 l -0.0742,-2.171875 v -0.378906 h 0.25782 c 0.13281,0 0.26172,-0.04687 0.39062,-0.140625 0.13281,-0.09375 0.24219,-0.238282 0.32813,-0.4375 0.16797,-0.375 0.28906,-0.855469 0.36328,-1.445313 0.0742,-0.589844 0.10937,-1.238281 0.10937,-1.953125 V 37.75 h 4.71485 z m 0,0"
           id="path5478"
           inkscape:connector-curvature="0" />
        <path
           style="fill:#343434;fill-opacity:1;fill-rule:nonzero;stroke:none;stroke-width:1.46883965"
           d="m 102.10938,55.167969 h -1.40625 v -4.945313 h -2.644536 v 4.945313 h -1.40625 v -6.238281 h 5.457036 z m 0,0"
           id="path5480"
           inkscape:connector-curvature="0" />
        <path
           style="fill:#343434;fill-opacity:1;fill-rule:nonzero;stroke:none;stroke-width:1.46883965"
           d="m 106.49609,52.226563 c 0.375,0 0.66407,-0.09375 0.875,-0.28125 0.21094,-0.183594 0.31641,-0.4375 0.31641,-0.753907 0,-0.308593 -0.0937,-0.554687 -0.28125,-0.738281 -0.19141,-0.183594 -0.47266,-0.277344 -0.85156,-0.277344 h -1.32422 v 2.050782 z M 107.625,49.09375 c 0.30469,0.105469 0.56641,0.257813 0.78516,0.453125 0.22265,0.195313 0.39062,0.433594 0.50781,0.707031 0.11719,0.277344 0.17578,0.585938 0.17578,0.929688 0,0.359375 -0.0664,0.679687 -0.19922,0.960937 -0.13281,0.285157 -0.3164,0.523438 -0.55078,0.71875 -0.23047,0.195313 -0.50391,0.34375 -0.82422,0.445313 -0.3125,0.105469 -0.65625,0.15625 -1.02344,0.15625 h -1.26562 v 1.703125 h -1.39453 v -6.238281 h 2.77344 c 0.37109,0 0.71093,0.05469 1.01562,0.164062"
           id="path5482"
           inkscape:connector-curvature="0" />
        <path
           style="fill:#343434;fill-opacity:1;fill-rule:nonzero;stroke:none;stroke-width:1.46883965"
           d="m 115.07031,50.1875 h -3.28515 v 1.171875 h 2.93359 v 1.21875 h -2.93359 v 1.332031 h 3.44531 v 1.257813 h -4.82422 v -6.238281 h 4.66406 z m 0,0"
           id="path5484"
           inkscape:connector-curvature="0" />
        <path
           style="fill:#343434;fill-opacity:1;fill-rule:nonzero;stroke:none;stroke-width:1.46883965"
           d="m 119.91016,51.199219 c 0.125,-0.101563 0.1875,-0.25 0.1875,-0.433594 0,-0.238281 -0.082,-0.414062 -0.2461,-0.535156 -0.16406,-0.121094 -0.43359,-0.183594 -0.80468,-0.183594 -0.58594,0 -1.12891,0.195313 -1.64063,0.585938 l -0.72656,-0.960938 c 0.34765,-0.296875 0.72265,-0.515625 1.125,-0.660156 0.39844,-0.140625 0.83984,-0.214844 1.32422,-0.214844 0.375,0 0.70703,0.04687 0.99609,0.132813 0.29297,0.08594 0.53906,0.207031 0.74609,0.363281 0.20313,0.15625 0.36329,0.339844 0.46875,0.554687 0.10938,0.214844 0.16407,0.449219 0.16407,0.710938 0,0.265625 -0.0547,0.507812 -0.16407,0.722656 -0.10546,0.214844 -0.26953,0.382813 -0.48828,0.507813 v 0.08203 c 0.29688,0.101562 0.53125,0.269531 0.69922,0.507812 0.16797,0.238282 0.25,0.53125 0.25,0.878907 0,0.292968 -0.0547,0.5625 -0.17187,0.8125 -0.11328,0.246093 -0.28516,0.460937 -0.51172,0.640625 -0.22656,0.179687 -0.50781,0.324218 -0.84766,0.429687 -0.33984,0.105469 -0.73437,0.15625 -1.1875,0.15625 -0.27344,0 -0.53125,-0.01563 -0.76953,-0.05078 -0.24219,-0.03516 -0.47266,-0.08594 -0.69141,-0.164063 -0.21484,-0.07422 -0.42578,-0.167968 -0.625,-0.28125 -0.19921,-0.117187 -0.39453,-0.257812 -0.58593,-0.425781 l 0.73828,-1.023437 c 0.32031,0.253906 0.64062,0.433593 0.96094,0.539062 0.32031,0.105469 0.67578,0.160156 1.0664,0.160156 0.41016,0 0.71485,-0.07813 0.91797,-0.226562 0.19922,-0.152344 0.30078,-0.355469 0.30078,-0.601563 0,-0.4375 -0.28125,-0.652343 -0.84765,-0.652343 h -1.57422 v -1.210938 h 1.42578 c 0.21875,0 0.39062,-0.05078 0.51172,-0.160156"
           id="path5486"
           inkscape:connector-curvature="0" />
        <path
           style="fill:#343434;fill-opacity:1;fill-rule:nonzero;stroke:none;stroke-width:1.46883965"
           d="m 124.57422,53.082031 3.01562,-4.152343 h 1.23047 v 6.238281 h -1.39062 v -3.921875 l -2.86719,3.921875 h -1.36719 v -6.238281 h 1.37891 z m 0,0"
           id="path5488"
           inkscape:connector-curvature="0" />
        <path
           style="fill:#343434;fill-opacity:1;fill-rule:nonzero;stroke:none;stroke-width:1.46883965"
           d="m 132.77734,52.441406 c -0.10547,0.625 -0.25,1.117188 -0.42968,1.46875 h 2.53125 v -3.734375 h -1.9336 c -0.008,0.882813 -0.0664,1.636719 -0.16797,2.265625 m 3.5,1.46875 h 0.90235 v 0.382813 l -0.1211,2.179687 h -1.25781 l -0.0547,-1.304687 h -4.21875 l -0.0742,1.304687 h -1.26562 l -0.0742,-2.171875 v -0.378906 h 0.26172 c 0.12891,0 0.25781,-0.04687 0.39062,-0.140625 0.12891,-0.09375 0.23829,-0.238281 0.32422,-0.4375 0.16797,-0.375 0.28907,-0.855469 0.36328,-1.445312 0.0742,-0.589844 0.11329,-1.238282 0.11329,-1.953125 v -1.015625 h 4.71093 z m 0,0"
           id="path5490"
           inkscape:connector-curvature="0" />
        <path
           style="fill:#343434;fill-opacity:1;fill-rule:nonzero;stroke:none;stroke-width:1.46883965"
           d="m 143.16406,50.1875 h -3.28515 v 1.171875 h 2.93359 v 1.21875 h -2.93359 v 1.332031 h 3.44531 v 1.257813 H 138.5 v -6.238281 h 4.66406 z m 0,0"
           id="path5492"
           inkscape:connector-curvature="0" />
        <path
           style="fill:#343434;fill-opacity:1;fill-rule:nonzero;stroke:none;stroke-width:1.46883965"
           d="m 146.21875,51.367188 h 2.72656 v -2.4375 h 1.40625 v 6.238281 h -1.40625 v -2.503906 h -2.72656 v 2.503906 h -1.40625 v -6.238281 h 1.40625 z m 0,0"
           id="path5494"
           inkscape:connector-curvature="0" />
        <path
           style="fill:#343434;fill-opacity:1;fill-rule:nonzero;stroke:none;stroke-width:1.46883965"
           d="m 157.29297,50.195313 h -2.13281 v 4.972656 h -1.38672 v -4.972656 h -2.13282 v -1.265625 h 5.65235 z m 0,0"
           id="path5496"
           inkscape:connector-curvature="0" />
        <path
           style="fill:#343434;fill-opacity:1;fill-rule:nonzero;stroke:none;stroke-width:1.46883965"
           d="m 162.53906,50.230469 c -0.28125,-0.105469 -0.59765,-0.15625 -0.94531,-0.15625 -0.30469,0 -0.57813,0.04687 -0.82422,0.144531 -0.24609,0.09766 -0.45703,0.234375 -0.62891,0.410156 -0.17187,0.175782 -0.30468,0.386719 -0.40234,0.628907 -0.0898,0.242187 -0.13672,0.503906 -0.13672,0.789062 0,0.300781 0.0469,0.570313 0.14453,0.8125 0.0937,0.242188 0.23047,0.449219 0.40235,0.621094 0.17578,0.167969 0.38281,0.300781 0.625,0.398437 0.24218,0.09375 0.50781,0.144532 0.80078,0.144532 0.35547,0 0.68359,-0.0625 0.99219,-0.183594 0.30859,-0.121094 0.58203,-0.292969 0.82421,-0.527344 l 0.79297,0.980469 c -0.70703,0.671875 -1.60156,1.003906 -2.68359,1.003906 -0.48438,0 -0.92969,-0.07422 -1.33203,-0.226562 -0.40235,-0.152344 -0.75,-0.371094 -1.03516,-0.652344 -0.28906,-0.28125 -0.51562,-0.621094 -0.67578,-1.019531 -0.16406,-0.398438 -0.24219,-0.839844 -0.24219,-1.332032 0,-0.445312 0.0781,-0.867187 0.23438,-1.265625 0.16015,-0.398437 0.39062,-0.746093 0.6875,-1.042968 0.29687,-0.296875 0.65625,-0.53125 1.07812,-0.703125 0.42188,-0.171875 0.89844,-0.253907 1.4336,-0.253907 0.48437,0 0.92968,0.07031 1.33203,0.214844 0.40234,0.148438 0.76172,0.359375 1.07812,0.640625 l -0.76953,1.015625 c -0.21875,-0.191406 -0.46875,-0.339844 -0.75,-0.441406"
           id="path5498"
           inkscape:connector-curvature="0" />
        <path
           style="fill:#343434;fill-opacity:1;fill-rule:nonzero;stroke:none;stroke-width:1.46883965"
           d="m 166.85156,51.304688 0.67969,-0.07422 1.76172,-2.300781 h 1.72265 l -2.3164,2.914062 2.53906,3.324219 h -1.79687 l -1.89844,-2.664063 h -0.69141 v 2.664063 h -1.3789 v -6.238281 h 1.3789 z m 0,0"
           id="path5500"
           inkscape:connector-curvature="0" />
        <path
           style="fill:#343434;fill-opacity:1;fill-rule:nonzero;stroke:none;stroke-width:1.46883965"
           d="m 173.88672,53.082031 3.01562,-4.152343 h 1.23047 v 6.238281 h -1.38672 v -3.921875 l -2.86718,3.921875 h -1.3711 v -6.238281 h 1.37891 z m 0,0"
           id="path5502"
           inkscape:connector-curvature="0" />
        <path
           style="fill:#343434;fill-opacity:1;fill-rule:nonzero;stroke:none;stroke-width:1.46883965"
           d="m 182.59375,51.15625 h 0.0977 l 1.23437,-2.226562 h 1.72656 l -1.99609,3.074218 2.1875,3.164063 h -1.80469 l -1.39453,-2.402344 h -0.0937 l -1.37891,2.402344 H 179.375 l 2.1875,-3.242188 -1.99219,-2.996093 h 1.74219 z m 0,0"
           id="path5504"
           inkscape:connector-curvature="0" />
        <path
           style="fill:#343434;fill-opacity:1;fill-rule:nonzero;stroke:none;stroke-width:1.46883965"
           d="m 101.375,61.375 h -3.324219 v 4.972656 H 96.652344 V 60.109375 H 101.375 Z m 0,0"
           id="path5506"
           inkscape:connector-curvature="0" />
        <path
           style="fill:#343434;fill-opacity:1;fill-rule:nonzero;stroke:none;stroke-width:1.46883965"
           d="m 105.29688,63.40625 c 0.37109,0 0.66406,-0.09375 0.875,-0.28125 0.21093,-0.1875 0.3164,-0.4375 0.3164,-0.753906 0,-0.308594 -0.0937,-0.558594 -0.28125,-0.738281 -0.1914,-0.183594 -0.47656,-0.277344 -0.85547,-0.277344 h -1.32031 v 2.050781 z m 1.125,-3.136719 c 0.30468,0.109375 0.57031,0.261719 0.78906,0.457032 0.21875,0.195312 0.39062,0.433593 0.50781,0.710937 0.11719,0.273438 0.17578,0.582031 0.17578,0.925781 0,0.359375 -0.0664,0.679688 -0.19922,0.960938 -0.13281,0.285156 -0.3164,0.523437 -0.55078,0.71875 -0.23047,0.195312 -0.50781,0.34375 -0.82422,0.445312 -0.3164,0.105469 -0.65625,0.15625 -1.02343,0.15625 h -1.26563 v 1.703125 h -1.39844 v -6.238281 h 2.77735 c 0.37109,0 0.71093,0.05469 1.01172,0.160156"
           id="path5508"
           inkscape:connector-curvature="0" />
        <path
           style="fill:#343434;fill-opacity:1;fill-rule:nonzero;stroke:none;stroke-width:1.46883965"
           d="m 112.53516,63.878906 -0.82813,-2.375 h -0.0937 l -0.83984,2.375 z m 2.47656,2.46875 h -1.54688 l -0.47265,-1.238281 h -2.67188 l -0.46875,1.238281 h -1.51562 l 2.55859,-6.246093 h 1.53906 z m 0,0"
           id="path5510"
           inkscape:connector-curvature="0" />
        <path
           style="fill:#343434;fill-opacity:1;fill-rule:nonzero;stroke:none;stroke-width:1.46883965"
           d="m 117.6875,62.546875 h 2.73047 v -2.4375 h 1.40234 v 6.238281 h -1.40234 V 63.84375 h -2.73047 v 2.503906 h -1.40625 v -6.238281 h 1.40625 z m 0,0"
           id="path5512"
           inkscape:connector-curvature="0" />
        <path
           style="fill:#343434;fill-opacity:1;fill-rule:nonzero;stroke:none;stroke-width:1.46883965"
           d="m 128.76172,61.375 h -2.13281 v 4.972656 h -1.38672 V 61.375 h -2.13281 v -1.265625 h 5.65234 z m 0,0"
           id="path5514"
           inkscape:connector-curvature="0" />
        <path
           style="fill:#343434;fill-opacity:1;fill-rule:nonzero;stroke:none;stroke-width:1.46883965"
           d="m 132.18359,61.382813 c -0.23828,0.109375 -0.4414,0.25 -0.60547,0.429687 -0.16406,0.179688 -0.28906,0.390625 -0.375,0.632813 -0.0898,0.242187 -0.13281,0.503906 -0.13281,0.78125 0,0.28125 0.043,0.542968 0.13281,0.789062 0.0859,0.242188 0.21094,0.457031 0.37891,0.636719 0.16797,0.179687 0.37109,0.320312 0.60547,0.425781 0.23437,0.09766 0.50391,0.152344 0.80078,0.152344 0.30469,0 0.57813,-0.05469 0.81641,-0.15625 0.23828,-0.109375 0.4414,-0.25 0.60547,-0.4375 0.16406,-0.179688 0.28906,-0.394531 0.37109,-0.636719 0.0859,-0.242187 0.125,-0.5 0.125,-0.773437 0,-0.285157 -0.043,-0.550782 -0.12891,-0.792969 -0.0859,-0.246094 -0.21093,-0.460938 -0.3789,-0.640625 -0.16407,-0.179688 -0.36328,-0.320313 -0.60547,-0.417969 -0.23828,-0.09766 -0.50391,-0.148437 -0.80469,-0.148437 -0.29687,0 -0.56641,0.05469 -0.80469,0.15625 m 2.15625,-1.15625 c 0.41016,0.164062 0.75782,0.390625 1.04688,0.683593 0.28906,0.289063 0.51562,0.632813 0.67578,1.027344 0.16016,0.394531 0.24219,0.824219 0.24219,1.289063 0,0.449218 -0.082,0.867187 -0.24219,1.261718 -0.16016,0.394532 -0.39063,0.738282 -0.67969,1.035157 -0.29297,0.292968 -0.64062,0.527343 -1.05078,0.699218 -0.40625,0.167969 -0.85156,0.253907 -1.34375,0.253907 -0.48437,0 -0.92578,-0.08203 -1.33203,-0.246094 -0.40234,-0.164063 -0.75,-0.394531 -1.04688,-0.683594 -0.29296,-0.292969 -0.52343,-0.636719 -0.68359,-1.035156 -0.16016,-0.394531 -0.24219,-0.824219 -0.24219,-1.285156 0,-0.445313 0.082,-0.867188 0.24219,-1.265625 0.16016,-0.398438 0.39063,-0.742188 0.68359,-1.035157 0.29688,-0.289062 0.64454,-0.519531 1.04688,-0.691406 0.40625,-0.171875 0.84766,-0.257812 1.33203,-0.257812 0.49219,0 0.94141,0.08203 1.35156,0.25"
           id="path5516"
           inkscape:connector-curvature="0" />
        <path
           style="fill:#343434;fill-opacity:1;fill-rule:nonzero;stroke:none;stroke-width:1.46883965"
           d="m 140.73828,65.15625 c 0.61328,0 0.92188,-0.246094 0.92188,-0.734375 0,-0.238281 -0.082,-0.414062 -0.24219,-0.539062 -0.16016,-0.121094 -0.39063,-0.179688 -0.69141,-0.179688 h -1.63672 v 1.453125 z m -0.22266,-2.589844 c 0.23438,0 0.41797,-0.05859 0.55079,-0.171875 0.13671,-0.113281 0.20312,-0.273437 0.20312,-0.46875 0,-0.417968 -0.26562,-0.625 -0.80078,-0.625 h -1.37891 v 1.265625 z m 1.54688,-2 c 0.37891,0.300782 0.56641,0.71875 0.56641,1.246094 0,0.261719 -0.0547,0.492188 -0.16407,0.699219 -0.10937,0.203125 -0.2539,0.355469 -0.4414,0.457031 v 0.08203 c 0.30468,0.101563 0.54687,0.277344 0.73047,0.535157 0.18359,0.257812 0.27343,0.558593 0.27343,0.898437 0,0.253906 -0.043,0.496094 -0.13672,0.722656 -0.0898,0.226563 -0.22656,0.421875 -0.41796,0.589844 -0.1875,0.167969 -0.42969,0.300781 -0.71875,0.402344 -0.29297,0.09766 -0.63672,0.148437 -1.03516,0.148437 h -3.01563 v -6.238281 h 2.75391 c 0.69531,0 1.23047,0.152344 1.60547,0.457031"
           id="path5518"
           inkscape:connector-curvature="0" />
      </g>
    </g>
    <g
       style="stroke-width:54.84039688"
       id="g4546"
       transform="matrix(0.01458779,0,0,0.01458779,148.37992,19.508035)">
      <g
         transform="translate(85.44307,-42.673696)"
         id="g6240">
        <g
           id="g6224">
          <path
             inkscape:connector-curvature="0"
             id="path4513"
             style="font-style:normal;font-variant:normal;font-weight:bold;font-stretch:condensed;font-size:medium;line-height:1.25;font-family:'PT Sans Narrow';-inkscape-font-specification:'PT Sans Narrow Bold Condensed';letter-spacing:0px;word-spacing:0px;fill:#404040;fill-opacity:1;stroke:none;stroke-width:51.4128685"
             d="m 2784.2702,1456.5547 q 0,26.2404 -6.5581,52.4807 -5.465,25.2311 -18.5811,48.4438 -13.1162,22.2033 -34.9764,39.3605 -20.7672,17.1572 -50.2785,26.2404 v 6.0555 q 26.2322,6.0554 49.1855,18.1663 24.0462,12.111 41.5344,33.3051 17.4881,20.185 27.3253,50.4622 10.9301,29.2682 10.9301,69.638 0,54.4992 -20.7673,94.869 -19.6742,39.3606 -54.6504,64.5917 -33.8834,25.2311 -79.7898,37.3421 -45.9065,12.1109 -97.278,12.1109 -15.3021,0 -39.3483,0 -24.0463,0 -52.4646,-2.0185 -27.3252,-1.0093 -56.8365,-4.037 -29.5112,-3.0277 -54.6505,-9.0832 v -696.379 q 36.0693,-6.0555 88.5338,-10.0925 53.5575,-5.0461 106.0221,-5.0461 48.0925,0 91.8129,7.0646 44.8134,7.0648 77.6037,26.2404 33.8833,19.1757 53.5575,53.49 19.6742,33.3051 19.6742,86.7951 z m -230.6252,443.0585 q 45.9064,0 75.4177,-27.2496 29.5113,-27.2497 29.5113,-79.7304 0,-33.3051 -9.8371,-52.4807 -9.8372,-20.1849 -26.2323,-30.2773 -16.3952,-11.1017 -38.2553,-14.1295 -20.7673,-3.0277 -43.7204,-3.0277 h -55.7436 v 200.8397 q 8.7441,3.0278 29.5112,5.0463 21.8603,1.0092 39.3485,1.0092 z m -37.1624,-306.8105 q 12.0231,0 27.3252,-1.0092 16.3952,-2.0185 26.2323,-4.037 31.6973,-11.1017 53.5575,-36.3328 22.9533,-25.2311 22.9533,-65.6009 0,-26.2404 -7.6512,-44.4068 -7.651,-18.1664 -20.7671,-28.2588 -13.1161,-11.1018 -31.6973,-15.1387 -17.4882,-5.0463 -38.2554,-5.0463 -44.8134,0 -63.3946,4.037 v 195.7935 z" />
          <path
             inkscape:connector-curvature="0"
             id="path4515"
             style="font-style:normal;font-variant:normal;font-weight:bold;font-stretch:condensed;font-size:medium;line-height:1.25;font-family:'PT Sans Narrow';-inkscape-font-specification:'PT Sans Narrow Bold Condensed';letter-spacing:0px;word-spacing:0px;fill:#404040;fill-opacity:1;stroke:none;stroke-width:51.4128685"
             d="m 2882.8973,1300.1217 q 39.3484,-8.074 86.3478,-12.111 46.9995,-5.0461 93.9989,-5.0461 50.2785,0 98.3709,9.0831 49.1855,8.074 87.4409,33.3051 38.2553,25.2311 62.3016,71.6564 24.0462,45.4161 24.0462,119.0909 0,66.6102 -20.7672,113.0355 -19.6741,46.4252 -53.5575,75.6933 -33.8833,29.2681 -78.6967,42.3883 -43.7204,13.1202 -90.7199,13.1202 -4.3721,0 -14.2091,0 -9.8372,0 -20.7673,0 -10.93,-1.0093 -21.8602,-2.0185 -9.8371,-1.0092 -14.2091,-2.0185 v 243.2281 h -137.7193 z m 137.7193,342.1341 q 6.5581,2.0184 24.0463,4.0369 18.5811,1.0092 25.1392,1.0092 24.0462,0 45.9064,-6.0554 21.8602,-6.0555 38.2554,-20.1849 17.4882,-15.1387 27.3252,-40.3698 9.8371,-26.2404 9.8371,-65.601 0,-33.305 -9.8371,-56.5177 -8.744,-23.2126 -25.1392,-36.3328 -15.3021,-14.1294 -36.0693,-20.1849 -20.7673,-6.0554 -43.7204,-6.0554 -33.8834,0 -55.7436,5.0461 z" />
          <path
             inkscape:connector-curvature="0"
             id="path4517"
             style="font-style:normal;font-variant:normal;font-weight:bold;font-stretch:condensed;font-size:medium;line-height:1.25;font-family:'PT Sans Narrow';-inkscape-font-specification:'PT Sans Narrow Bold Condensed';letter-spacing:0px;word-spacing:0px;fill:#404040;fill-opacity:1;stroke:none;stroke-width:51.4128685"
             d="m 3403.785,1293.057 h 382.5538 v 117.0724 h -244.8344 v 173.5902 h 221.8811 v 117.0724 h -221.8811 v 181.664 h 249.2063 v 117.0725 H 3403.785 Z" />
          <path
             inkscape:connector-curvature="0"
             id="path4519"
             style="font-style:normal;font-variant:normal;font-weight:bold;font-stretch:condensed;font-size:medium;line-height:1.25;font-family:'PT Sans Narrow';-inkscape-font-specification:'PT Sans Narrow Bold Condensed';letter-spacing:0px;word-spacing:0px;fill:#404040;fill-opacity:1;stroke:none;stroke-width:51.4128685"
             d="m 4363.1068,1635.191 15.3021,-135.2388 h -5.465 l -40.4414,121.1094 -124.6032,248.2743 h -45.9065 l -132.2542,-249.2836 -40.4414,-122.1186 h -6.558 l 20.7672,136.2481 v 365.3467 H 3873.4381 V 1293.057 h 132.2542 l 159.5796,305.8012 26.2322,87.8044 h 4.3721 l 25.1393,-89.8229 149.7424,-303.7827 h 130.0683 v 706.4715 h -137.7194 z" />
          <path
             inkscape:connector-curvature="0"
             id="path4521"
             style="font-style:normal;font-variant:normal;font-weight:bold;font-stretch:condensed;font-size:medium;line-height:1.25;font-family:'PT Sans Narrow';-inkscape-font-specification:'PT Sans Narrow Bold Condensed';letter-spacing:0px;word-spacing:0px;fill:#404040;fill-opacity:1;stroke:none;stroke-width:51.4128685"
             d="m 5032.0975,1999.5285 h -137.7193 v -281.5794 l -59.0225,19.1757 -121.3241,262.4037 H 4555.545 l 124.6032,-240.2004 54.6505,-40.3698 q -57.9295,-15.1387 -96.185,-65.6009 -38.2553,-51.4715 -38.2553,-143.3127 0,-64.5918 19.6742,-107.9893 19.6742,-43.3975 55.7435,-69.6379 36.0694,-26.2403 86.3478,-37.342 50.2785,-12.1109 110.3941,-12.1109 14.2091,0 34.9763,1.0092 21.8603,1.0092 43.7204,3.0277 21.8603,2.0185 42.6275,6.0555 21.8602,3.0277 38.2553,7.0647 z m -137.7193,-594.4453 q -9.837,-3.0278 -19.6742,-4.0371 -9.837,-1.0092 -24.0462,-1.0092 -21.8602,0 -41.5344,6.0555 -19.6741,5.0463 -33.8833,19.1757 -14.2091,13.1202 -22.9532,35.3235 -7.6511,22.2035 -7.6511,55.5085 0,63.5824 29.5113,91.8413 30.6043,27.2496 78.6968,27.2496 h 41.5343 z" />
          <path
             inkscape:connector-curvature="0"
             id="path4502"
             style="font-style:normal;font-variant:normal;font-weight:bold;font-stretch:condensed;font-size:medium;line-height:1.25;font-family:'PT Sans Narrow';-inkscape-font-specification:'PT Sans Narrow Bold Condensed';letter-spacing:0px;word-spacing:0px;fill:#404040;fill-opacity:1;stroke:none;stroke-width:51.4128685"
             d="m 2696.5422,2592.4784 h -210.5678 v 298.7366 h -138.9086 v -706.4714 h 138.9086 v 290.6625 h 210.5678 v -290.6625 h 138.9086 v 706.4714 h -138.9086 z" />
          <path
             inkscape:connector-curvature="0"
             id="path4504"
             style="font-style:normal;font-variant:normal;font-weight:bold;font-stretch:condensed;font-size:medium;line-height:1.25;font-family:'PT Sans Narrow';-inkscape-font-specification:'PT Sans Narrow Bold Condensed';letter-spacing:0px;word-spacing:0px;fill:#404040;fill-opacity:1;stroke:none;stroke-width:51.4128685"
             d="m 3246.8881,2731.7542 h -181.904 l -45.2005,159.4608 h -137.8061 l 223.7971,-711.5177 h 109.1425 l 224.8997,711.5177 h -145.5233 z m -152.138,-104.9614 h 127.8841 l -44.0979,-164.5069 -17.6392,-111.017 h -4.4097 l -18.7417,112.0262 z" />
          <path
             inkscape:connector-curvature="0"
             id="path4506"
             style="font-style:normal;font-variant:normal;font-weight:bold;font-stretch:condensed;font-size:medium;line-height:1.25;font-family:'PT Sans Narrow';-inkscape-font-specification:'PT Sans Narrow Bold Condensed';letter-spacing:0px;word-spacing:0px;fill:#404040;fill-opacity:1;stroke:none;stroke-width:51.4128685"
             d="m 3653.8813,2492.5633 16.5367,93.8597 h 5.5123 l 14.3318,-96.8875 87.0934,-304.7919 h 143.3185 l -171.9821,488.4745 q -19.844,57.5269 -37.4832,99.9152 -17.6392,41.379 -38.5858,69.6379 -20.9465,28.2588 -47.4052,42.3883 -25.3564,13.1202 -62.8397,13.1202 -29.7661,0 -51.8151,-5.0463 -20.9465,-5.0462 -44.0979,-19.1756 l 34.1758,-106.9799 q 15.4344,8.0739 27.5613,11.1017 12.127,2.0184 25.3563,3.0276 40.7907,0 56.2249,-76.7026 l -238.129,-519.761 h 164.2649 z" />
          <path
             inkscape:connector-curvature="0"
             id="path4508"
             style="font-style:normal;font-variant:normal;font-weight:bold;font-stretch:condensed;font-size:medium;line-height:1.25;font-family:'PT Sans Narrow';-inkscape-font-specification:'PT Sans Narrow Bold Condensed';letter-spacing:0px;word-spacing:0px;fill:#404040;fill-opacity:1;stroke:none;stroke-width:51.4128685"
             d="m 4124.1963,2588.4415 h -29.7661 v 302.7735 h -138.9085 v -706.4714 h 138.9085 v 313.8751 l 27.5612,-12.1109 162.06,-301.7642 h 156.5478 l -176.3918,297.7272 -51.8151,37.3421 52.9175,38.3512 203.9531,333.0509 h -169.7772 z" />
          <path
             inkscape:connector-curvature="0"
             id="path4510"
             style="font-style:normal;font-variant:normal;font-weight:bold;font-stretch:condensed;font-size:medium;line-height:1.25;font-family:'PT Sans Narrow';-inkscape-font-specification:'PT Sans Narrow Bold Condensed';letter-spacing:0px;word-spacing:0px;fill:#404040;fill-opacity:1;stroke:none;stroke-width:51.4128685"
             d="m 4893.1891,2514.7666 11.0245,-99.9152 h -5.5123 l -41.8931,106.9799 -219.3874,369.3837 h -109.1423 v -706.4714 h 138.9085 v 369.3836 l -12.127,102.9429 h 5.5123 l 44.0979,-110.0077 219.3874,-362.3188 h 108.0401 v 706.4714 h -138.9086 z" />
        </g>
        <g
           id="g6212">
          <path
             inkscape:connector-curvature="0"
             id="path4146"
             d="M 1016.5206,3113.6883 C 909.84457,3107.8563 810.93823,3086.2655 712.23339,3047.2636 571.38614,2991.6098 439.8487,2899.4865 338.3483,2785.4105 305.75649,2748.7806 277.91016,2712.655 249.66169,2670.3558 154.07823,2527.229 96.177174,2364.0606 80.023758,2192.3067 c -5.303563,-56.391 -5.920655,-127.0905 -1.602101,-183.5512 10.466852,-136.8435 46.882873,-267.9947 108.047233,-389.1288 74.39918,-147.345 182.72887,-274.726 313.25292,-368.3426 92.95378,-66.6699 188.78285,-113.7498 296.53727,-145.6857 170.42837,-50.5111 363.02132,-51.4838 533.93022,-2.6967 144.9881,41.3878 276.0018,114.1567 391.3096,217.3447 18.1008,16.1983 54.7051,52.6866 70.7773,70.5531 115.3418,128.2187 196.3964,280.6362 237.5206,446.6414 37.14,149.9221 40.3684,313.4443 9.2047,466.2202 -24.1122,118.2069 -70.3129,234.6996 -133.3325,336.1917 -33.7959,54.4275 -69.0413,101.4596 -112.4198,150.0152 -14.6489,16.3972 -58.4575,59.9901 -75.0577,74.6879 -94.391,83.5749 -198.5828,146.8499 -311.3185,189.062 -88.6099,33.1785 -172.3984,51.4783 -270.0243,58.9742 -19.5884,1.5041 -99.5439,2.2324 -120.3281,1.0962 z M 686.53622,2925.6806 c 64.00046,-7.1088 135.35949,-38.577 203.53797,-89.7572 23.31291,-17.5005 30.55754,-24.112 39.29213,-35.8581 36.33676,-48.8652 62.96891,-105.0971 78.04578,-164.7882 6.0317,-23.8801 9.6801,-44.8818 12.3295,-70.9732 7.6679,-75.5142 29.2458,-421.8076 41.3521,-663.6398 2.1081,-42.1109 2.5038,-90.102 0.8409,-101.9729 -1.476,-10.5361 -3.9427,-20.0569 -6.3412,-24.4751 -1.0965,-2.02 -4.3643,-6.6088 -7.2614,-10.1973 -9.5107,-11.7801 -12.9937,-16.9031 -17.1483,-25.2217 -4.0291,-8.0677 -4.191,-8.2584 -9.3815,-11.0531 -7.2148,-3.8848 -21.7989,-18.4432 -28.44166,-28.392 -15.82979,-23.7078 -25.26906,-52.5481 -29.96531,-91.5541 -1.97,-16.3627 -1.98815,-50.6259 -0.0355,-66.6654 1.60723,-13.2009 4.00061,-23.4798 5.97483,-25.6615 1.93335,-2.1362 4.02678,-1.864 10.86516,1.4132 10.78184,5.167 20.83908,12.7971 54.95798,41.6949 10.6992,9.0619 19.8768,16.2862 20.3946,16.0539 0.5178,-0.2323 4.3296,-4.5207 8.4706,-9.5298 11.1129,-13.4424 24.7651,-28.4299 48.795,-53.5677 33.6688,-35.221 43.067,-44.641 44.9842,-45.0879 3.1398,-0.7321 5.2691,1.866 10.4809,12.7882 14.0536,29.4511 22.2982,64.6234 25.7378,109.7991 2.666,35.0151 -2.4782,60.5232 -18.6728,92.5914 -13.7554,27.238 -35.7354,55.519 -63.9883,82.3313 -12.1793,11.5582 -14.8821,15.3686 -18.9216,26.6745 -11.8094,33.0531 -16.748,97.8401 -16.7516,219.7549 0,62.9377 1.4932,102.5781 6.1303,162.542 7.4734,96.6403 23.3698,224.6685 46.5088,374.5784 12.2068,79.0831 15.1397,93.9035 23.7228,119.876 14.9338,45.1896 39.168,89.643 71.6162,131.3677 7.275,9.3548 14.4786,15.777 34.8315,31.0535 69.6107,52.2484 141.9669,84.1902 206.2973,91.0703 25.4964,2.7267 67.8237,-0.2443 69.6049,-4.8859 0.2242,-0.5844 -1.9568,-12.2221 -4.8466,-25.8618 -2.89,-13.6395 -9.8179,-46.4582 -15.3955,-72.9304 -10.6718,-50.6492 -25.5365,-120.9523 -31.8238,-150.5121 -2.0519,-9.6466 -5.1655,-24.3307 -6.9192,-32.6313 -25.2063,-119.3073 -42.3361,-197.1647 -48.1914,-219.0378 -9.1313,-34.1107 -16.7117,-49.1298 -32.9418,-65.2681 -10.9454,-10.8834 -20.0469,-16.9006 -54.5213,-36.0455 -46.0028,-25.5471 -74.2247,-42.895 -102.5689,-63.0486 -69.5366,-49.4425 -109.971,-98.7525 -120.4253,-146.8592 -2.1323,-9.8115 -2.1619,-34.9979 -0.053,-44.8681 5.0997,-23.8665 17.171,-47.4483 36.9567,-72.1968 9.5726,-11.9736 32.9221,-35.1983 48.0347,-47.7778 36.207,-30.1379 74.9052,-55.3903 139.9069,-91.2956 30.2863,-16.7294 40.2695,-23.2819 50.6464,-33.2418 10.0016,-9.6 14.8773,-16.0084 20.6509,-27.1439 8.8061,-16.9835 14.3232,-36.4663 30.3202,-107.0715 1.0929,-4.8234 2.9251,-12.8996 4.0716,-17.9473 6.2162,-27.3679 17.1322,-75.8063 26.1517,-116.0452 2.9165,-13.0117 8.061,-35.9556 11.4319,-50.9864 13.2138,-58.9179 31.0298,-138.7986 40.7561,-182.7355 l 10.2033,-46.0918 -1.7635,-1.2236 c -0.9701,-0.673 -10.2194,-6.0781 -20.554,-12.0114 -103.2009,-59.2484 -219.6551,-98.0123 -337.5185,-112.3489 -37.9476,-4.6158 -67.3541,-6.3563 -107.6834,-6.3733 -32.8914,-0.014 -52.1661,0.8174 -81.84442,3.5297 -131.88995,12.0533 -259.56571,53.3482 -374.79034,121.221 -6.3937,3.7662 -11.62491,7.2356 -11.62491,7.7096 0,1.024 34.86324,157.2944 72.68682,325.8103 2.21556,9.871 5.11883,22.7195 6.45172,28.5525 1.3329,5.8328 5.71,25.1057 9.7269,42.8285 19.89064,87.7593 23.83397,102.4834 32.12415,119.9494 8.34265,17.5764 21.41257,32.0381 40.12763,44.4004 4.93549,3.2601 18.15118,10.9839 29.3682,17.164 41.72276,22.9874 64.76338,36.7426 90.95984,54.3028 80.35266,53.8627 125.63141,105.8266 137.18441,157.4389 2.5359,11.3287 2.7492,34.7805 0.415,45.636 -2.523,11.7343 -6.9067,23.9808 -12.629,35.2816 -10.12385,19.9933 -22.33968,36.3995 -42.57624,57.1809 -38.22968,39.259 -84.74162,72.0271 -167.86915,118.2655 -34.37491,19.1204 -43.5165,25.1642 -54.52197,36.0465 -20.76651,20.5339 -28.71524,40.8478 -43.89184,112.1703 -14.99358,70.4623 -91.84599,451.9831 -91.84599,455.9538 0,1.8535 1.59951,2.4187 14.16956,5.0076 19.47401,4.0109 45.73086,5.1133 66.593,2.796 z M 1062.7894,1424.1314 c -8.528,-1.375 -16.4448,-7.3149 -20.351,-15.2692 -2.0123,-4.0977 -2.26,-5.4966 -2.2594,-12.7601 5e-4,-7.3461 0.2265,-8.5867 2.2712,-12.4685 3.0291,-5.7507 7.9011,-10.4759 13.5151,-13.108 3.9142,-1.835 5.7126,-2.1601 11.9497,-2.1601 6.237,0 8.0354,0.3251 11.9496,2.1601 5.614,2.6321 10.4861,7.3573 13.5151,13.108 2.0447,3.8818 2.2707,5.1224 2.2713,12.4685 5e-4,7.2844 -0.244,8.656 -2.2839,12.81 -5.4232,11.0435 -17.9149,17.261 -30.5777,15.2193 z"
             style="fill:#bfbfbf;fill-opacity:1;stroke-width:54.84038162"
             sodipodi:nodetypes="sssssssssssssssssssssssssssssssssccsscsssssssscsssssscssssssssscssssssssssccsssssssssssssssssssssssscssssssscs" />
          <path
             inkscape:connector-curvature="0"
             id="path4144"
             d="M 1017.3364,3112.873 C 911.27612,3107.0704 811.15186,3085.3645 714.68074,3047.2609 549.73848,2982.1128 403.02999,2871.4923 293.25602,2729.5001 225.52919,2641.8956 172.35512,2544.4486 135.22788,2439.897 107.68123,2362.3246 88.792948,2276.0568 80.839541,2191.4909 75.542423,2135.1685 74.932054,2065.86 79.23744,2009.5712 c 12.524136,-163.7404 61.19597,-316.539 145.77929,-457.6545 70.1283,-116.9991 166.53596,-221.883 276.33665,-300.6321 140.9715,-101.1049 300.11377,-161.7392 468.66757,-178.5656 166.41545,-16.6129 332.54905,9.2156 482.62985,75.0337 97.7531,42.8697 186.0457,99.8637 267.2164,172.4916 18.0973,16.1926 56.3193,54.2965 72.4107,72.1868 97.7544,108.683 171.0708,235.3809 216.2058,373.6247 45.9859,140.8497 61.2022,295.292 44.0056,446.6455 -22.1401,194.8615 -99.1114,379.188 -222.1074,531.8908 -24.9356,30.9583 -41.6873,49.4669 -73.8752,81.6232 -26.4169,26.3911 -42.8027,41.4545 -66.8676,61.4717 -95.003,79.0238 -205.7977,140.6394 -321.108,178.5759 -74.7405,24.5893 -148.8591,39.0982 -232.4982,45.5117 -19.6048,1.5033 -98.0304,2.2291 -118.6965,1.0984 z M 683.68098,2926.8306 c 26.6283,-3.0214 42.91516,-6.6558 68.93369,-15.3825 54.20655,-18.1811 108.96603,-50.145 164.26389,-95.8828 4.56303,-3.7743 13.89264,-15.6765 24.61884,-31.4077 27.97269,-41.0249 48.90033,-85.8381 63.1345,-135.192 5.813,-20.1557 11.9755,-49.7173 13.9073,-66.7144 0.4589,-4.0381 1.0093,-8.6269 1.2232,-10.1973 0.6247,-4.5889 1.9785,-18.5934 2.5235,-26.1051 0.866,-11.9365 1.0464,-14.0777 1.5073,-17.8999 0.2467,-2.0451 0.6451,-7.2058 0.8853,-11.4683 0.2401,-4.2625 0.6043,-8.8513 0.8092,-10.1973 0.205,-1.346 0.6069,-6.4854 0.8931,-11.4209 0.2862,-4.9355 0.6365,-10.4421 0.7783,-12.2368 0.2489,-3.1468 0.8316,-11.7076 1.6101,-23.6577 0.2046,-3.1408 0.5585,-7.3625 0.7864,-9.3815 0.2279,-2.0191 0.6113,-7.5256 0.8519,-12.2368 0.2405,-4.7111 0.5828,-10.4013 0.7605,-12.6446 0.1777,-2.2435 0.5487,-7.5664 0.8242,-11.8289 0.2756,-4.2625 0.6582,-9.9525 0.8503,-12.6447 0.1921,-2.692 0.5551,-8.5656 0.8068,-13.0524 0.2516,-4.4868 0.6247,-10.5441 0.8292,-13.4605 0.2044,-2.9164 0.554,-8.4229 0.7766,-12.2367 0.2226,-3.8138 0.5913,-8.5862 0.8191,-10.6052 0.228,-2.0191 0.6417,-8.2598 0.9196,-13.8684 0.5482,-11.0656 0.7365,-14.3367 1.5022,-26.1051 0.2773,-4.2624 0.6764,-10.595 0.887,-14.0723 0.2105,-3.4773 0.5664,-9.2592 0.7908,-12.8487 0.2243,-3.5895 0.5828,-9.3712 0.7967,-12.8485 0.2137,-3.4772 0.5925,-9.6261 0.8417,-13.6642 0.2491,-4.0382 0.6162,-10.0954 0.8157,-13.4605 0.1996,-3.365 0.5667,-9.4223 0.8158,-13.4604 0.2491,-4.0381 0.625,-10.2788 0.8351,-13.8683 1.1394,-19.4565 1.7287,-29.3863 2.4207,-40.7892 0.6499,-10.7088 1.1135,-18.6159 1.6539,-28.2117 0.2631,-4.6741 0.6238,-10.8847 0.8014,-13.8011 0.6816,-11.1954 1.2141,-20.275 1.6265,-27.7366 0.2356,-4.2625 0.5948,-10.5033 0.7984,-13.8684 0.2034,-3.365 0.5687,-9.9729 0.8114,-14.6841 0.2428,-4.7111 0.6182,-11.686 0.834,-15.4998 0.216,-3.8138 0.5838,-10.4217 0.8173,-14.6841 0.4623,-8.4302 0.936,-16.7225 1.6083,-28.1446 0.2377,-4.0381 0.6142,-11.0131 0.8367,-15.4999 0.2225,-4.4868 0.5767,-11.0946 0.7871,-14.6841 0.2103,-3.5894 0.5832,-10.3808 0.8286,-15.092 0.2455,-4.7111 0.6236,-11.8696 0.8403,-15.9077 0.2168,-4.0382 0.593,-11.7473 0.836,-17.1315 0.2429,-5.3841 0.6075,-13.0933 0.8101,-17.1314 1.068,-21.2874 1.2564,-25.1276 1.6018,-32.6314 0.2066,-4.4868 0.6082,-12.7466 0.8927,-18.3551 0.2843,-5.6085 0.5038,-23.413 0.4875,-39.5655 -0.026,-25.7464 -0.236,-30.5982 -1.704,-39.3423 -2.5964,-15.4645 -4.8894,-20.8514 -13.1165,-30.8151 -9.2032,-11.1454 -12.4992,-15.9599 -16.9458,-24.7524 -2.5737,-5.0889 -5.129,-10.0755 -5.6785,-11.0812 -0.5495,-1.0056 -1.9245,-5.2854 -3.0556,-9.5104 -9.5553,-35.6957 -5.1622,-81.2461 10.7832,-111.8069 5.0179,-9.617 15.6673,-24.8404 20.4656,-29.2556 1.7067,-1.5704 7.0858,-7.5835 11.9535,-13.3627 19.0548,-22.6223 85.4052,-92.6675 90.2763,-95.3035 3.6379,-1.9687 4.8078,-1.0301 9.0796,7.2838 10.5604,20.5525 17.7383,44.0354 23.3839,76.501 1.139,6.55 3.3484,25.5345 3.7978,32.6313 0.1988,3.1408 0.7227,9.8054 1.1641,14.8103 0.4415,5.0049 0.6389,9.5938 0.4389,10.1973 -0.2,0.6037 -0.5473,4.0343 -0.7718,7.6238 -2.9051,46.4773 -33.8741,100.9787 -83.6702,147.2489 -10.271,9.5437 -12.8831,12.91 -16.3621,21.0857 -5.8223,13.6819 -11.4934,41.2607 -13.5297,65.7953 -0.2607,3.1407 -0.6123,7.3624 -0.7814,9.3815 -2.9834,35.6455 -3.7492,65.4471 -3.7628,146.433 -0.01,59.0618 0.2231,76.6557 1.3335,100.7493 1.0085,21.8836 2.5678,45.5778 4.9123,74.6442 0.1086,1.346 0.4674,6.4855 0.7974,11.421 0.33,4.9354 0.7258,9.1833 0.8798,9.4396 0.1539,0.2564 0.4988,3.9274 0.7663,8.1579 0.2676,4.2305 0.6466,8.6095 0.8424,9.7312 0.1957,1.1217 0.5616,4.6092 0.8129,7.75 0.2515,3.1408 0.8263,9.1979 1.2776,13.4604 0.4514,4.2625 0.9916,9.5855 1.2007,11.8288 0.2092,2.2435 0.5616,5.5473 0.7833,7.3421 0.2216,1.7947 0.5915,5.0987 0.822,7.342 0.5107,4.9734 2.0875,18.8145 2.4626,21.6183 0.15,1.1217 0.6681,5.8941 1.1513,10.6052 0.4832,4.7112 1.4263,12.7874 2.0957,17.9473 0.6696,5.1598 2.1562,16.9071 3.3035,26.105 2.318,18.5814 4.1378,32.7775 5.2291,40.7892 0.3972,2.9164 1.1065,8.2393 1.5762,11.8288 2.1534,16.4593 4.9788,36.652 9.8731,70.5653 3.9064,27.068 5.7208,39.2772 6.5464,44.0523 0.4268,2.4678 1.1556,7.2401 1.6196,10.6052 0.7955,5.7681 1.3831,9.698 3.2628,21.8221 0.4348,2.8043 1.1413,7.3931 1.57,10.1973 0.7812,5.11 2.2159,14.2719 4.5033,28.7592 0.673,4.2625 1.7552,11.145 2.405,15.2946 5.3739,34.3207 10.7348,55.5789 20.9322,83.0045 15.1171,40.6573 38.8454,82.1363 67.4191,117.8542 5.5511,6.9391 9.7209,11.0267 18.5785,18.212 25.1762,20.4231 58.5216,42.9092 84.0257,56.6617 9.2238,4.9738 32.8213,16.7062 38.7585,19.2703 18.5225,7.9994 43.0845,16.4028 59.9513,20.5111 15.7013,3.8244 20.8714,4.7262 41.6049,7.2566 6.8109,0.8312 42.4644,0.6297 48.1312,-0.2721 1.7948,-0.2856 5.6493,-0.8874 8.5658,-1.3371 7.1084,-1.0962 10.4698,-2.2484 11.3434,-3.8882 0.4695,-0.881 0.029,-4.6769 -1.2483,-10.7438 -1.0858,-5.1599 -2.5024,-11.9512 -3.148,-15.092 -1.8291,-8.8984 -4.239,-20.3051 -6.5492,-30.9997 -1.1631,-5.3843 -2.4435,-11.4414 -2.8453,-13.4605 -0.4018,-2.0191 -1.6812,-8.0762 -2.8432,-13.4604 -1.162,-5.3842 -2.6354,-12.3591 -3.2743,-15.4999 -1.5886,-7.8089 -4.0111,-19.303 -6.5335,-30.9998 -1.1613,-5.3841 -2.6239,-12.3591 -3.2504,-15.4999 -0.6265,-3.1408 -1.9084,-9.1979 -2.8487,-13.4604 -0.9403,-4.2625 -2.2272,-10.3196 -2.8596,-13.4604 -0.6324,-3.1407 -2.0911,-10.1157 -3.2416,-15.4999 -2.2001,-10.2967 -6.0313,-28.4243 -8.6206,-40.7891 -0.8456,-4.0382 -2.3019,-10.8296 -3.2362,-15.0921 -0.9345,-4.2625 -2.2144,-10.3196 -2.8446,-13.4604 -0.63,-3.1407 -1.9164,-9.1979 -2.8587,-13.4604 -0.9422,-4.2624 -2.0376,-9.4019 -2.4341,-11.421 -0.6999,-3.564 -4.5494,-21.6699 -6.9811,-32.8353 -0.6597,-3.0286 -1.7393,-7.9844 -2.3994,-11.0131 -0.6601,-3.0285 -2.8873,-13.5828 -4.9492,-23.4537 -3.8371,-18.3691 -10.1504,-47.654 -14.2453,-66.0784 -0.3989,-1.7948 -1.3166,-6.0165 -2.0395,-9.3816 -0.7227,-3.3651 -1.6569,-7.5867 -2.0759,-9.3815 -0.419,-1.7947 -2.8136,-12.6243 -5.3215,-24.0656 -5.9222,-27.0192 -12.5428,-52.8792 -16.2906,-63.6311 -6.853,-19.6601 -15.485,-33.8569 -27.7384,-45.6207 -12.3853,-11.8903 -20.1307,-16.9079 -59.928,-38.8218 -59.2406,-32.6203 -103.0285,-61.7942 -137.8674,-91.8546 -13.2629,-11.4438 -34.002,-32.492 -42.5356,-43.1694 -21.5352,-26.9451 -34.4238,-54.1572 -37.4695,-79.1103 -1.4465,-11.8508 -1.4008,-17.3527 0.2471,-29.776 7.1846,-54.1626 55.2877,-111.0964 141.7576,-167.7812 7.4033,-4.8531 14.1946,-9.3182 15.0919,-9.9224 1.4987,-1.009 24.9253,-15.0925 35.4867,-21.3337 5.2869,-3.1243 5.6862,-3.3485 36.4433,-20.4559 32.2875,-17.9586 43.3517,-25.8071 54.5601,-38.7023 16.712,-19.227 23.4275,-37.2842 38.683,-104.0124 0.9231,-4.0381 2.0242,-8.8105 2.4466,-10.6051 0.4225,-1.7947 1.3092,-5.6493 1.9704,-8.5658 0.6612,-2.9164 1.9978,-8.79 2.9703,-13.0525 1.9864,-8.7075 3.3771,-14.8767 5.2414,-23.2499 0.6994,-3.1407 2.1704,-9.565 3.2691,-14.2761 1.0988,-4.7112 2.9723,-12.971 4.1634,-18.3551 2.8399,-12.8373 3.0582,-13.8113 5.6676,-25.2894 2.4315,-10.6953 3.0925,-13.6364 4.309,-19.1709 0.4438,-2.019 2.1728,-9.7282 3.8421,-17.1314 4.3411,-19.2525 4.2264,-18.7405 5.3008,-23.6578 0.5392,-2.4677 1.2681,-5.7716 1.6198,-7.342 0.9354,-4.1775 8.2373,-36.6284 8.9944,-39.9733 0.9194,-4.0611 2.1216,-9.4834 3.2559,-14.6841 0.5382,-2.4678 1.2668,-5.7717 1.619,-7.3421 0.3523,-1.5704 3.1089,-13.8683 6.1258,-27.3287 3.0169,-13.4605 5.7759,-25.7584 6.1312,-27.3288 0.9271,-4.0979 2.1284,-9.517 3.2554,-14.6841 0.5383,-2.4678 1.2716,-5.7716 1.6299,-7.3421 0.3582,-1.5703 1.0924,-4.8743 1.6315,-7.342 0.5392,-2.4678 1.2695,-5.7716 1.6229,-7.3421 17.1061,-76.0094 22.8086,-103.1793 21.8536,-104.1233 -0.9355,-0.9246 -18.8458,-11.6176 -27.1475,-16.2077 -42.5574,-23.5306 -79.9132,-41.0209 -122.1403,-57.1873 -16.7289,-6.4045 -55.4493,-19.3845 -70.3846,-23.5946 -18.2542,-5.1456 -35.3382,-9.6261 -43.845,-11.4986 -3.2547,-0.7165 -7.2026,-1.5899 -8.7731,-1.9408 -23.6831,-5.292 -61.2045,-11.9364 -80.3546,-14.2295 -5.8329,-0.6984 -13.3585,-1.6282 -16.7235,-2.0661 -38.1745,-4.9679 -107.9686,-6.6863 -151.7357,-3.7359 -2.4678,0.1663 -8.1579,0.5208 -12.6447,0.7877 -4.48683,0.267 -9.80975,0.6872 -11.82888,0.9338 -3.57225,0.4364 -5.7468,0.6564 -15.90772,1.6096 -2.69214,0.2526 -5.81248,0.5831 -6.9342,0.7346 -1.12172,0.1513 -7.17886,0.8802 -13.46039,1.6194 -16.42211,1.9326 -45.71238,6.7518 -62.4075,10.2681 -54.76221,11.5336 -98.41777,24.3627 -148.06465,43.5116 -7.62757,2.9419 -16.98869,6.6881 -20.80247,8.325 -3.81379,1.6368 -8.95323,3.8151 -11.42097,4.8407 -14.35156,5.9645 -58.32785,27.4609 -71.69713,35.047 -3.60881,2.0476 -6.72287,3.7231 -6.92011,3.7231 -0.62126,0 -28.84034,16.643 -31.1725,18.3848 l -2.2243,1.6614 6.74785,30.1542 c 3.71133,16.5848 7.03579,31.4391 7.38771,33.0095 1.15439,5.1512 2.25477,10.1239 3.24935,14.6841 0.53823,2.4678 1.27164,5.7716 1.62982,7.3421 0.35818,1.5703 1.09238,4.8743 1.63157,7.342 0.53918,2.4678 1.27338,5.7716 1.63156,7.3421 0.35818,1.5703 1.09238,4.8743 1.63157,7.342 0.53918,2.4678 1.26948,5.7716 1.62289,7.3421 0.35341,1.5703 3.47768,15.5203 6.94284,30.9997 3.46515,15.4795 6.58942,29.4294 6.94283,30.9997 0.35341,1.5705 1.08371,4.8744 1.62289,7.3422 0.53919,2.4676 1.26949,5.7716 1.62291,7.342 0.35341,1.5704 2.74347,12.2164 5.31125,23.6577 2.56777,11.4414 4.95784,22.0873 5.31126,23.6577 0.35341,1.5703 1.08372,4.8743 1.6229,7.342 0.53918,2.4678 1.26954,5.7717 1.62301,7.3421 0.61371,2.7266 6.00906,26.6434 7.36125,32.6313 0.35461,1.5704 1.00785,4.5072 1.45166,6.5263 0.44379,2.0191 2.17271,9.7282 3.84205,17.1315 1.66932,7.4031 3.32049,14.7452 3.66926,16.3156 0.34878,1.5703 2.00074,8.9124 3.67103,16.3157 3.45203,15.3004 3.79897,16.8532 5.6506,25.2893 0.7386,3.3651 2.24533,9.9729 3.3483,14.6841 1.10296,4.7111 2.57755,11.1354 3.27686,14.2761 0.6993,3.1408 1.77632,7.9132 2.39337,10.6053 0.61702,2.692 1.70079,7.4643 2.40833,10.6051 0.70755,3.1408 2.21763,9.7487 3.35573,14.6841 1.1381,4.9355 2.83028,12.2776 3.7604,16.3157 14.52535,63.0621 23.43254,82.7902 46.48177,102.9498 5.03393,4.4029 25.79968,19.0098 27.02501,19.0098 0.33668,0 35.9086,19.6641 44.24594,24.4591 1.79472,1.0321 4.91509,2.8002 6.93416,3.929 24.2449,13.5547 63.20899,38.7513 84.8462,54.8671 60.33181,44.9361 96.54569,89.6474 107.66429,132.9274 0.8644,3.3652 2.168,11.075 2.8967,17.1331 1.2802,10.6434 1.2671,11.4506 -0.394,23.9482 -2.8921,21.763 -10.4287,41.0031 -24.33134,62.1153 -27.98443,42.4966 -79.59497,86.4643 -151.91883,129.4218 -20.63339,12.2554 -26.99533,15.902 -48.94701,28.056 -27.69054,15.3314 -34.1262,19.2481 -42.79671,26.0457 -18.8154,14.751 -29.93049,31.1498 -38.17149,56.3169 -3.82365,11.677 -8.85648,29.902 -10.47547,37.9339 -0.49742,2.4678 -1.19746,5.7716 -1.55563,7.3421 -0.35818,1.5703 -1.03909,4.6907 -1.51313,6.9341 -0.47406,2.2434 -1.63284,7.5664 -2.57509,11.8288 -0.94225,4.2625 -2.22645,10.3197 -2.85376,13.4605 -0.62733,3.1408 -2.82991,13.7867 -4.89462,23.6577 -2.06472,9.871 -4.45354,21.4347 -5.3085,25.6972 -0.85495,4.2625 -4.7013,23.1683 -8.54743,42.0129 -22.82509,111.8341 -70.56992,350.6711 -70.56992,353.0162 0,2.7332 8.99414,5.1619 29.36821,7.9304 11.86652,1.6123 38.27593,2.0213 49.3549,0.7642 z M 564.1687,2890.7673 c 0,-0.1418 2.20782,-15.6519 4.90627,-34.4668 2.69844,-18.815 12.44285,-87.4389 21.65423,-152.4976 25.79764,-182.2053 39.15993,-272.4925 45.24392,-305.7071 2.66451,-14.5464 8.17367,-36.4791 12.65534,-50.3823 14.82275,-45.984 36.6801,-74.8265 77.06536,-101.6941 8.30937,-5.528 10.44648,-6.818 20.80247,-12.5569 17.71208,-9.8152 23.53918,-13.0113 23.72248,-13.0113 0.11458,0 3.0025,-1.6519 6.4176,-3.671 3.4151,-2.019 6.37579,-3.671 6.57931,-3.671 0.20351,0 2.67088,-1.4077 5.48304,-3.1282 2.81215,-1.7206 5.48012,-3.2808 5.9288,-3.4671 0.83625,-0.3473 23.9018,-14.2131 29.74032,-17.8783 1.78687,-1.1216 6.4112,-4.014 10.2763,-6.4273 22.15943,-13.8364 56.56899,-40.3619 73.40316,-56.5848 18.27357,-17.6102 30.39891,-32.9575 38.06075,-48.1744 13.01,-25.839 8.61716,-46.7598 -16.39416,-78.0752 -19.16414,-23.9944 -56.15298,-54.8153 -97.15244,-80.9518 -4.26247,-2.7173 -9.03481,-5.7586 -10.60519,-6.7585 -9.10892,-5.8 -32.75186,-19.5101 -56.08032,-32.5201 -33.69466,-18.791 -31.96722,-17.7928 -40.18212,-23.2207 -45.88809,-30.3206 -68.47436,-64.3112 -84.00562,-126.4216 -4.87845,-19.5092 -8.3548,-30.2348 -33.59833,-103.6612 -52.60646,-153.0174 -78.67306,-233.6115 -93.30141,-288.4743 -1.19634,-4.4868 -2.44758,-8.4481 -2.78054,-8.803 -0.33297,-0.3547 -5.48933,3.3163 -11.45857,8.1579 -5.96925,4.8417 -12.23088,9.9043 -13.91473,11.2503 -3.35818,2.6845 -8.57595,7.2345 -25.24264,22.0123 -14.58308,12.9303 -53.87449,52.1576 -68.65177,68.5396 -28.83509,31.9667 -52.27888,61.6384 -79.60269,100.7493 -9.35393,13.3891 -30.94662,47.5432 -37.39186,59.1443 -0.49854,0.8974 -3.22823,5.6697 -6.06596,10.6052 -2.83773,4.9355 -6.42918,11.3598 -7.981,14.2761 -1.55182,2.9165 -5.88324,10.9928 -9.62539,17.9473 -3.74216,6.9546 -8.99557,17.4702 -11.67426,23.3682 -2.67868,5.898 -5.26323,11.4045 -5.74342,12.2367 -1.70267,2.9511 -14.59783,32.7277 -20.43929,47.1971 -38.49829,95.3613 -62.09954,198.9318 -68.50323,300.6162 -0.46624,7.4032 -1.04068,15.9896 -1.27656,19.0808 -0.66673,8.7379 -1.51897,34.8112 -1.53616,46.9977 -0.0138,9.7691 0.23467,17.3477 1.61804,49.3549 0.54125,12.523 3.36135,46.4472 5.2218,62.8153 15.28245,134.4534 57.5639,262.2947 125.46044,379.3393 3.38358,5.8328 7.3137,12.4406 8.7336,14.6841 1.41991,2.2434 3.44751,5.5473 4.5058,7.342 11.06753,18.7692 39.2695,59.4955 56.93328,82.2173 57.56919,74.0538 121.81146,136.1188 196.7692,190.1006 16.97891,12.2275 20.08319,14.354 21.00642,14.3901 0.56085,0.022 1.01973,-0.076 1.01973,-0.218 z m 1011.7929,-1.9682 c 12.8759,-8.3092 46.6517,-33.6125 65.23,-48.8677 65.4895,-53.7749 123.9698,-116.6598 173.6294,-186.7071 6.141,-8.662 23.2357,-34.2455 28.0727,-42.0129 0.978,-1.5703 2.7944,-4.4624 4.0366,-6.4267 5.4146,-8.5622 20.6708,-34.8992 29.12,-50.2702 2.7641,-5.0283 24.2677,-48.2004 27.2244,-54.6575 48.3299,-105.5431 77.205,-217.6266 86.0619,-334.0633 1.9943,-26.2176 2.5361,-42.4592 2.5037,-75.052 -0.033,-32.9941 -0.3494,-47.6057 -1.2287,-56.697 -0.217,-2.2434 -0.7961,-9.9526 -1.2869,-17.1314 -4.1794,-61.1286 -16.5558,-131.7456 -33.8344,-193.0533 -3.7054,-13.1473 -13.8586,-46.0554 -15.1903,-49.2344 -0.3759,-0.8973 -2.7469,-7.5052 -5.2687,-14.6841 -14.5392,-41.3872 -37.9984,-94.016 -59.4544,-133.3806 -3.0569,-5.6085 -6.6588,-12.2163 -8.0039,-14.6841 -1.3452,-2.4677 -2.7152,-4.8539 -3.0444,-5.3026 -0.3293,-0.4486 -1.5106,-2.4677 -2.6253,-4.4868 -6.706,-12.1467 -30.7398,-50.4226 -39.1862,-62.4074 -12.3363,-17.5043 -15.6169,-22.0393 -25.0287,-34.5979 -46.1799,-61.621 -102.3301,-119.7613 -162.6779,-168.4438 -4.8662,-3.9255 -9.3168,-6.9572 -9.8904,-6.7371 -0.5734,0.22 -1.3013,1.7787 -1.6174,3.4635 -0.3161,1.6849 -3.2703,12.4519 -6.5649,23.9268 -16.6658,58.0468 -39.1286,126.0939 -84.0405,254.5853 -27.2848,78.0609 -32.8649,94.9353 -38.3423,115.9482 -13.4,51.4074 -26.8666,77.5054 -53.3425,103.3769 -16.3126,15.9402 -33.128,27.3446 -67.7866,45.9738 -12.8762,6.9209 -50.836,28.898 -59.5522,34.478 -1.5704,1.0054 -6.3427,4.0631 -10.6052,6.795 -59.4566,38.1067 -101.7672,78.2279 -115.3741,109.4037 -3.8322,8.7805 -5.3347,15.237 -5.3498,22.9893 -0.062,32.0778 36.3524,74.6469 104.0003,121.5762 11.0937,7.6961 44.96,28.6863 60.7759,37.6688 6.3086,3.5829 33.6521,18.8357 41.465,23.13 1.9422,1.0674 5.6132,3.0868 8.1579,4.4874 14.4777,7.9687 32.095,21.0898 44.0572,32.8132 15.4054,15.0977 25.1529,28.5185 34.3679,47.3189 9.2799,18.9327 19.2368,51.6357 24.5194,80.5323 5.8863,32.1996 18.2055,115.5647 42.7843,289.5266 27.4602,194.3555 28.7336,203.1301 29.4789,203.1301 0.1983,0 1.9128,-1.0018 3.8102,-2.2261 z"
             style="fill:#404040;fill-opacity:1;stroke-width:54.84038162"
             sodipodi:nodetypes="sssssssssssssssssssssssssscscscccsssccsccscsssssssscscsscsccccccsccscssssssscssssscscssccssssssccsccccssccsscccssssssssscssccssscssscccsccscccscsssssssssssssssccscssssssccccssscssccsssssssssssssssssssscsssssssssssssssssssssssssssssscsssssssssssssssssssssssssssssssccssssssssssssssssssssssssssssssssssscsssssssssscssscscsssssccssssscsscsscsssssss" />
        </g>
      </g>
    </g>
  </g>
</svg>
